<?xml version="1.0" standalone="no"?>
<!DOCTYPE svg PUBLIC "-//W3C//DTD SVG 20010904//EN"
 "http://www.w3.org/TR/2001/REC-SVG-20010904/DTD/svg10.dtd">
<svg version="1.0" xmlns="http://www.w3.org/2000/svg"
 width="809.000000pt" height="1089.000000pt" viewBox="0 0 809.000000 1089.000000"
 preserveAspectRatio="xMidYMid meet">

<g transform="translate(0.000000,1089.000000) scale(0.100000,-0.100000)"
fill="#000000" stroke="none">
<path d="M3935 10865 c-174 -51 -198 -64 -404 -214 -109 -79 -150 -104 -173
-103 -37 1 -273 -60 -313 -81 -31 -15 -156 -105 -165 -117 -3 -4 -23 -15 -44
-25 -32 -15 -150 -98 -226 -158 -123 -97 -162 -127 -200 -152 -24 -17 -80 -61
-125 -98 -72 -61 -168 -129 -280 -199 -22 -14 -92 -47 -155 -73 -63 -26 -120
-52 -127 -57 -6 -5 -58 -33 -115 -63 -56 -30 -120 -64 -142 -76 -48 -26 -205
-176 -242 -232 -15 -23 -56 -71 -90 -107 -92 -96 -200 -294 -268 -490 -51
-150 -119 -406 -121 -460 -2 -30 -8 -149 -15 -265 -14 -224 -6 -442 26 -700
22 -178 32 -285 40 -425 l6 -125 -67 -60 c-163 -144 -197 -184 -258 -308 -111
-224 -151 -381 -164 -643 -9 -195 7 -278 108 -574 40 -119 94 -304 149 -515
44 -170 78 -283 100 -332 33 -75 118 -218 147 -249 73 -75 165 -144 215 -159
65 -19 142 -20 161 -1 7 8 29 16 48 18 l34 3 2 -109 c2 -158 22 -419 39 -510
35 -196 119 -503 215 -788 69 -207 123 -333 189 -443 26 -44 65 -114 85 -155
21 -41 52 -93 70 -115 18 -22 38 -51 45 -64 7 -13 26 -39 42 -56 16 -18 54
-72 84 -121 64 -101 82 -124 169 -214 64 -66 264 -261 345 -336 25 -23 99 -97
165 -164 149 -150 430 -366 573 -439 35 -18 96 -54 136 -81 40 -27 95 -58 122
-69 27 -10 93 -40 148 -66 183 -87 170 -85 512 -85 167 0 305 4 308 9 3 5 18
12 33 16 102 25 338 179 382 248 11 18 34 50 50 72 17 22 34 47 37 55 4 8 20
26 35 40 15 14 48 57 73 95 25 39 54 82 65 96 35 46 198 293 215 327 21 40
196 322 274 442 31 47 79 112 108 145 51 59 175 224 244 325 38 55 73 103 137
190 93 125 207 336 275 510 16 41 44 109 63 150 39 86 74 194 106 331 l22 97
51 6 c35 4 66 16 101 41 117 82 161 168 261 515 70 246 213 585 302 718 56 84
87 139 117 212 14 36 33 80 41 98 53 114 92 333 80 447 -8 78 -50 166 -114
239 -51 58 -61 79 -42 91 9 6 116 182 157 260 12 22 38 81 58 130 21 50 41 95
45 100 30 37 124 317 149 443 81 407 88 616 26 880 -24 100 -70 244 -85 267
-9 13 -110 297 -110 310 0 16 -221 444 -264 514 -12 20 -44 81 -71 136 -94
196 -199 358 -301 465 -34 36 -75 81 -90 100 -16 19 -42 49 -57 65 -16 17 -65
78 -109 138 -44 59 -84 107 -88 107 -4 0 -18 21 -32 48 -13 26 -53 94 -88 152
-73 121 -129 217 -225 385 -81 141 -170 235 -329 351 -56 40 -128 93 -161 118
-33 24 -95 62 -137 84 -42 22 -105 65 -140 94 -72 61 -136 103 -145 95 -3 -4
-20 5 -38 19 -18 13 -74 42 -124 64 l-92 40 -587 -1 -587 0 -80 -24z m827 -7
c42 -6 75 -15 72 -20 -3 -4 6 -8 20 -8 14 0 26 3 26 8 0 4 24 5 52 3 41 -3 47
-6 28 -11 -17 -4 3 -9 60 -14 138 -11 268 -61 353 -134 26 -23 75 -61 110 -85
57 -41 88 -58 202 -107 22 -10 69 -41 105 -70 35 -29 107 -81 160 -115 148
-97 232 -187 337 -361 114 -191 109 -183 172 -299 69 -128 191 -319 233 -367
18 -20 46 -52 61 -70 76 -88 149 -170 222 -249 91 -99 179 -234 273 -423 35
-72 73 -143 84 -158 23 -33 214 -411 246 -486 12 -30 25 -66 28 -80 15 -67 45
-155 68 -201 49 -97 84 -197 105 -306 12 -60 26 -129 31 -153 20 -86 7 -320
-29 -527 -42 -240 -89 -395 -177 -590 -123 -268 -190 -387 -279 -495 -33 -39
-76 -103 -96 -143 l-37 -72 -12 45 c-7 25 -19 65 -27 89 -7 24 -11 51 -8 61 3
10 0 20 -9 23 -8 3 -18 23 -22 44 -4 21 -18 51 -31 67 -13 16 -32 45 -42 65
-18 35 -107 125 -163 166 l-27 20 19 57 c11 31 33 125 50 209 25 129 31 183
34 348 6 250 -8 564 -29 661 -30 142 -96 314 -201 529 -135 273 -164 316 -338
495 -38 39 -98 105 -134 146 -134 154 -395 406 -457 440 -33 19 -120 74 -194
122 -74 48 -144 88 -156 88 -11 0 -25 4 -30 8 -6 5 -26 15 -45 22 -19 8 -67
28 -106 47 -40 18 -121 45 -180 60 -104 26 -119 27 -333 25 -228 -2 -438 -20
-566 -49 -71 -16 -255 -15 -661 3 -141 7 -183 2 -369 -38 -71 -15 -290 -116
-355 -164 -172 -126 -214 -162 -305 -256 -96 -99 -203 -224 -237 -279 -9 -14
-23 -33 -32 -41 -51 -52 -141 -253 -202 -453 -26 -83 -28 -103 -28 -265 -1
-217 17 -323 83 -473 15 -34 21 -69 21 -115 -1 -77 -13 -108 -134 -339 l-79
-151 -247 5 c-254 6 -300 2 -382 -34 -21 -9 -40 -23 -42 -32 -6 -17 20 -97 47
-148 22 -42 96 -97 160 -122 56 -20 219 -51 274 -51 18 0 33 -3 33 -8 0 -4 7
-66 15 -137 9 -72 13 -148 10 -170 -3 -22 -12 -121 -20 -219 -9 -99 -20 -185
-26 -192 -5 -7 -14 -50 -19 -96 -18 -162 -133 -525 -163 -515 -7 2 -20 17 -30
34 -20 34 -31 132 -47 423 -10 177 -20 272 -50 460 -15 95 -64 274 -100 367
-37 98 -146 283 -198 337 -51 53 -166 144 -197 156 -24 9 -25 14 -26 82 0 103
-17 393 -28 518 -19 193 -41 522 -41 604 1 182 27 362 80 551 55 195 82 274
141 406 58 129 119 229 155 253 18 11 57 56 86 100 29 43 94 117 143 165 80
76 107 94 225 153 74 37 146 74 160 81 14 8 77 40 140 71 170 84 544 346 697
489 63 58 198 150 283 192 19 9 60 36 90 60 81 62 105 72 236 94 161 28 186
36 239 76 24 19 59 41 77 50 18 8 77 50 131 94 93 74 105 80 215 114 155 49
336 81 437 78 50 -1 114 6 170 18 108 23 146 25 247 9z m738 -138 c0 -5 -2
-10 -4 -10 -3 0 -8 5 -11 10 -3 6 -1 10 4 10 6 0 11 -4 11 -10z m-445 -1680
c94 -23 375 -136 435 -175 92 -60 210 -134 255 -160 57 -33 202 -171 348 -330
56 -60 155 -168 221 -238 66 -71 140 -154 164 -185 40 -54 247 -457 290 -567
67 -171 97 -450 89 -825 -4 -197 -9 -256 -31 -361 -32 -164 -54 -239 -70 -239
-7 0 -73 26 -147 59 -191 84 -272 106 -614 173 -145 28 -299 28 -460 -1 -145
-27 -203 -45 -264 -82 -42 -26 -55 -29 -141 -30 -185 -1 -288 41 -622 257
-121 79 -214 126 -337 171 -400 145 -458 156 -769 148 -277 -8 -400 -25 -549
-76 -65 -22 -152 -52 -193 -66 -65 -22 -96 -26 -240 -30 -124 -4 -187 -1 -255
11 -49 9 -103 16 -120 16 -63 1 -62 7 28 177 112 209 131 264 124 368 -3 60
-12 98 -35 151 -17 38 -41 117 -52 175 -31 147 -25 375 13 495 39 126 117 315
146 354 36 49 164 214 171 220 3 3 26 31 53 62 26 31 55 60 65 63 9 3 39 33
66 66 32 39 96 93 180 153 248 178 445 235 764 222 482 -19 556 -19 649 3 56
13 156 24 278 31 105 6 199 13 210 15 55 10 266 -4 350 -25z m-1265 -2504
c126 -21 230 -50 282 -81 24 -14 66 -37 95 -50 28 -13 54 -29 58 -34 3 -6 17
-11 29 -11 24 0 106 -41 141 -70 11 -9 47 -32 79 -50 32 -18 89 -53 125 -77
100 -66 258 -141 346 -163 43 -11 114 -21 159 -22 74 -2 86 1 138 30 70 39
157 67 228 76 30 4 100 14 155 23 145 23 251 13 550 -52 196 -42 319 -86 545
-192 129 -61 285 -210 346 -331 l39 -77 -1 -170 c0 -209 -17 -287 -100 -451
-74 -145 -132 -223 -240 -320 -147 -131 -165 -141 -306 -165 -156 -27 -336
-22 -553 16 -182 31 -165 26 -303 93 -120 58 -122 59 -234 192 -39 47 -74 87
-78 90 -27 22 -112 178 -120 221 -5 28 -12 54 -15 59 -3 4 -12 41 -20 81 -21
103 -90 271 -136 332 -22 28 -39 54 -39 57 0 3 -20 16 -45 28 -56 27 -156 30
-234 6 -64 -19 -109 -62 -200 -189 -243 -340 -240 -336 -300 -406 -116 -137
-222 -187 -461 -219 -187 -25 -317 -12 -490 49 -30 11 -145 43 -255 71 -110
29 -212 58 -227 66 -78 40 -122 123 -196 369 l-36 120 2 227 c2 293 -4 318
-112 431 -63 67 -82 81 -132 97 -33 10 -86 28 -119 40 -84 30 -228 57 -375 70
-259 23 -344 46 -411 109 -44 43 -51 76 -16 84 12 3 83 9 157 12 123 6 209 -1
405 -29 17 -2 62 -7 100 -11 39 -3 108 -13 155 -22 63 -11 127 -14 250 -10
186 5 260 22 445 101 77 33 118 45 178 50 43 4 88 11 100 17 34 14 533 3 647
-15z m-2893 -89 c26 -20 61 -46 76 -58 24 -18 30 -20 38 -8 8 12 10 12 19 -1
6 -10 6 -16 -1 -19 -6 -2 9 -24 34 -50 56 -57 105 -137 146 -239 36 -90 78
-247 91 -335 5 -34 15 -102 24 -152 9 -49 25 -227 36 -395 11 -168 25 -323 32
-345 7 -23 31 -58 56 -82 85 -84 159 -49 219 103 17 43 38 113 47 154 8 41 24
102 34 135 38 118 73 299 83 429 5 72 14 169 19 216 9 80 1 239 -16 313 -6 26
-5 27 31 27 63 0 228 -38 321 -74 94 -36 181 -101 210 -157 18 -36 29 -132 44
-379 16 -252 25 -308 77 -434 42 -105 118 -237 152 -264 34 -27 108 -53 250
-88 80 -20 198 -53 262 -74 199 -65 252 -74 418 -66 80 3 163 9 184 12 l39 6
-23 -43 c-28 -55 -49 -133 -49 -181 0 -52 31 -129 76 -187 69 -91 193 -132
229 -77 21 32 5 66 -31 66 -67 0 -155 86 -170 167 -12 65 15 155 67 222 11 13
19 32 19 43 0 14 24 30 97 64 86 40 107 55 181 131 83 86 214 258 251 330 10
22 39 61 63 89 24 27 59 73 78 102 46 69 93 92 185 92 67 0 69 -1 105 -40 42
-46 41 -43 114 -225 9 -22 23 -74 31 -115 21 -98 49 -189 76 -242 20 -39 21
-52 16 -170 -5 -123 -5 -128 16 -143 33 -23 47 -18 66 26 l19 41 50 -74 c71
-105 82 -136 82 -233 0 -125 -31 -195 -105 -232 -16 -9 -38 -24 -48 -34 -17
-18 -16 -20 5 -44 30 -34 64 -31 120 10 61 44 97 100 114 172 16 66 18 180 5
236 -11 48 -3 48 94 -2 93 -49 169 -75 255 -89 36 -6 106 -18 155 -26 50 -8
182 -17 295 -21 194 -6 207 -5 245 14 21 12 45 21 52 21 22 0 26 -48 18 -209
-4 -86 -7 -239 -7 -340 1 -105 -5 -249 -14 -335 -8 -83 -18 -184 -21 -223 -3
-40 -9 -70 -14 -68 -4 3 -7 -13 -7 -36 0 -22 -5 -46 -11 -52 -6 -6 -11 -24
-11 -40 0 -16 -6 -43 -13 -60 -8 -18 -21 -52 -29 -77 -88 -252 -232 -538 -355
-707 -60 -82 -97 -134 -165 -233 -57 -83 -102 -140 -152 -194 -101 -106 -276
-364 -391 -576 -88 -162 -299 -480 -389 -585 -23 -27 -57 -72 -76 -100 -62
-92 -108 -141 -183 -192 -164 -113 -333 -174 -487 -177 -118 -1 -233 19 -325
56 -38 15 -82 28 -97 28 -14 0 -39 10 -55 23 -25 21 -175 87 -196 87 -4 0 -20
8 -35 19 -59 40 -190 120 -237 144 -47 23 -160 102 -320 223 -38 30 -122 106
-185 170 -63 65 -135 136 -159 158 -144 135 -334 319 -380 371 -29 33 -91 114
-137 180 -129 184 -144 206 -191 268 -24 33 -43 63 -43 69 0 16 -91 193 -101
196 -35 13 -157 342 -262 702 -116 397 -145 589 -153 1000 -2 135 -5 294 -7
355 l-2 109 -28 10 c-49 18 -61 -8 -65 -134 l-4 -109 -43 -40 c-50 -46 -97
-62 -152 -51 -49 8 -70 23 -149 100 -62 61 -118 153 -166 271 -32 77 -39 101
-194 664 -8 28 -25 82 -38 120 -57 164 -96 294 -105 355 -30 184 7 497 79 680
58 147 115 246 180 311 36 36 82 73 102 82 20 10 40 23 44 29 5 7 10 4 15 -9
4 -12 29 -37 56 -56z m6512 -1080 c74 -87 76 -93 75 -267 -1 -152 -1 -157 -38
-258 -46 -128 -105 -253 -151 -321 -51 -73 -136 -232 -175 -326 -52 -127 -142
-384 -180 -515 -12 -41 -25 -84 -29 -95 -4 -11 -19 -53 -32 -94 -25 -80 -87
-174 -133 -205 -15 -9 -44 -20 -63 -23 l-36 -6 8 119 c5 65 8 211 7 323 -2
271 11 316 135 466 32 39 71 87 86 107 15 21 51 64 79 95 114 130 149 220 182
473 8 63 24 150 35 192 19 75 55 158 68 158 32 0 113 -103 113 -144 0 -18 38
-46 62 -46 10 0 25 11 33 24 15 23 14 28 -13 88 -29 63 -71 114 -127 154 l-30
21 33 67 c18 37 36 66 41 64 4 -2 27 -25 50 -51z m-401 -729 c-14 -64 -46
-123 -103 -186 -28 -31 -75 -88 -105 -127 -30 -38 -68 -85 -84 -103 -27 -29
-31 -31 -37 -15 -4 10 -8 32 -8 49 -1 16 -7 36 -13 43 -11 10 -9 15 7 27 112
81 232 200 318 316 16 21 30 38 32 38 1 0 -1 -19 -7 -42z m-5728 -788 c0 -5
-4 -10 -10 -10 -5 0 -10 5 -10 10 0 6 5 10 10 10 6 0 10 -4 10 -10z"/>
<path d="M3180 6434 c-147 -42 -245 -97 -330 -183 -66 -67 -80 -88 -116 -176
-89 -216 -118 -344 -118 -535 0 -158 10 -207 67 -330 22 -49 50 -85 111 -143
106 -102 176 -136 362 -176 77 -17 151 -34 165 -39 153 -58 550 -17 677 70 69
46 169 155 280 303 242 323 310 433 342 560 35 138 25 181 -67 272 -57 56 -89
76 -247 155 -99 50 -199 103 -221 118 -68 47 -125 69 -224 89 -136 27 -294 41
-456 40 -118 0 -153 -4 -225 -25z m490 -135 c253 -41 321 -58 366 -94 24 -19
25 -25 19 -68 -5 -29 -12 -47 -20 -47 -8 0 -20 -7 -29 -15 -13 -14 -36 -14
-163 -7 -81 5 -175 10 -208 10 -104 2 -249 24 -270 42 -17 14 -197 31 -352 33
-73 1 -133 5 -133 8 0 19 58 59 175 121 147 77 226 80 615 17z m563 -105 c223
-112 316 -209 304 -318 -11 -107 -70 -232 -215 -456 -151 -234 -384 -475 -491
-508 -100 -31 -474 -16 -611 24 -263 78 -301 94 -368 158 -56 54 -98 130 -125
225 -18 65 -21 104 -21 271 -1 214 7 270 55 386 l30 71 107 5 c216 10 412 -11
617 -68 41 -11 490 -23 527 -13 39 10 98 68 98 97 0 9 7 31 16 47 15 28 14 57
-1 98 -10 23 -5 22 78 -19z"/>
<path d="M3318 5840 c-78 -13 -147 -39 -258 -97 -120 -62 -140 -78 -140 -108
0 -31 32 -56 145 -114 88 -46 112 -53 205 -66 58 -7 131 -19 163 -26 51 -11
63 -10 87 4 15 10 44 17 65 17 53 0 267 59 288 79 20 19 24 45 13 78 -7 22 -7
22 39 7 53 -19 91 -12 100 16 12 36 -4 59 -48 70 -23 6 -76 26 -117 45 -198
89 -384 121 -542 95z m192 -155 c0 -65 -17 -126 -40 -140 -6 -4 -48 -4 -93 0
l-82 6 -17 53 c-10 29 -18 69 -18 89 0 34 2 36 38 42 20 4 44 8 52 10 8 1 48
3 88 4 l72 1 0 -65z m142 19 c33 -17 118 -92 118 -104 0 -8 -160 -53 -166 -47
-5 4 8 167 13 167 2 0 18 -7 35 -16z m-485 -71 c6 -27 9 -50 7 -53 -8 -7 -94
44 -94 55 0 10 53 42 71 44 3 1 11 -20 16 -46z"/>
<path d="M3330 5701 c-15 -29 -12 -87 6 -105 18 -19 55 -21 72 -4 15 15 16 82
2 109 -7 12 -21 19 -40 19 -19 0 -33 -7 -40 -19z"/>
<path d="M5668 6013 c-114 -11 -225 -32 -338 -65 -61 -17 -151 -96 -190 -165
-18 -31 -41 -92 -52 -136 -28 -112 -22 -192 26 -327 21 -58 51 -140 66 -183
16 -43 35 -86 44 -96 9 -10 16 -23 16 -30 0 -6 8 -24 18 -39 89 -132 119 -174
158 -222 24 -30 50 -69 58 -86 31 -69 178 -153 371 -210 195 -58 417 -59 625
-3 105 29 144 54 262 171 92 91 111 116 161 213 32 61 59 124 62 142 2 17 8
40 13 50 22 43 32 95 38 210 8 136 0 181 -47 273 -34 66 -64 100 -146 163 -34
26 -74 62 -90 80 -28 34 -180 122 -283 165 -46 19 -203 61 -329 87 -72 15
-323 20 -443 8z m95 -118 c157 -27 242 -71 395 -204 46 -39 108 -88 138 -108
30 -20 52 -38 50 -41 -10 -9 -152 21 -230 50 -124 44 -135 49 -183 75 -25 13
-98 40 -162 59 -98 30 -137 37 -252 43 -141 7 -169 15 -169 52 0 23 35 41 120
62 120 31 174 33 293 12z m460 -16 c67 -17 150 -42 184 -55 62 -25 289 -149
297 -162 5 -9 -31 -218 -64 -372 -33 -157 -80 -531 -80 -642 l0 -66 -62 -21
c-181 -59 -406 -72 -555 -33 -123 33 -251 80 -297 110 -40 26 -68 49 -152 124
-56 51 -115 140 -141 213 -22 61 -55 206 -48 213 2 2 17 -4 34 -12 16 -9 85
-30 153 -46 108 -27 140 -30 273 -30 190 0 373 17 403 36 31 21 26 62 -10 83
-15 9 -40 32 -55 52 -121 154 -289 224 -528 217 -109 -3 -125 -6 -180 -33 -33
-16 -86 -52 -118 -79 -47 -39 -61 -46 -68 -35 -40 63 -46 249 -11 339 12 30
31 66 41 80 l20 25 9 -25 c25 -65 89 -90 227 -90 60 0 135 -7 173 -16 157 -36
195 -48 220 -69 81 -66 340 -142 500 -147 75 -2 87 8 96 75 5 44 3 51 -20 70
-14 12 -44 42 -67 65 -51 53 -158 133 -253 190 -38 23 -79 49 -90 57 -18 14
-17 14 14 15 18 0 88 -14 155 -31z m87 -169 c0 -5 -4 -10 -9 -10 -6 0 -13 5
-16 10 -3 6 1 10 9 10 9 0 16 -4 16 -10z m563 -247 c31 -65 32 -73 32 -193 0
-122 -1 -128 -48 -270 -48 -147 -67 -192 -115 -265 -29 -44 -72 -95 -82 -95
-18 0 52 541 91 701 10 42 23 109 29 149 6 40 13 76 16 81 8 14 40 -31 77
-108z m-1130 -84 c59 -11 67 -15 67 -34 0 -13 3 -36 6 -53 6 -29 2 -33 -42
-61 -47 -31 -122 -42 -150 -23 -28 19 -54 123 -45 183 1 8 85 2 164 -12z
m-263 -73 l0 -74 -44 13 c-24 7 -59 21 -77 31 l-33 17 34 29 c36 31 85 57 108
58 8 0 12 -21 12 -74z m499 -46 c42 -39 50 -50 34 -50 -11 0 -41 -3 -66 -6
l-46 -7 10 37 c6 20 7 46 4 56 -10 31 5 24 64 -30z"/>
<path d="M5623 5373 c-7 -2 -13 -15 -13 -28 0 -34 36 -112 57 -123 24 -13 63
3 64 25 2 39 -3 78 -12 81 -5 2 -9 12 -9 22 0 24 -52 38 -87 23z"/>
<path d="M778 6235 c-103 -39 -198 -136 -228 -234 -24 -77 -27 -221 -5 -331
29 -154 108 -412 160 -525 17 -38 54 -128 81 -200 33 -89 66 -156 106 -215 84
-123 93 -134 112 -127 27 11 18 50 -26 118 -39 59 -65 116 -169 368 -22 52
-53 151 -70 220 -17 69 -47 182 -66 251 -27 98 -36 151 -40 245 -7 151 3 191
65 258 102 109 201 114 320 13 24 -20 49 -36 55 -36 73 1 76 45 10 108 -89 84
-217 121 -305 87z"/>
<path d="M4088 4309 c-11 -6 -18 -22 -18 -39 0 -26 7 -33 50 -55 28 -14 74
-41 103 -59 185 -118 344 -138 662 -84 66 11 145 23 175 26 30 2 61 11 68 19
8 7 23 11 33 8 13 -4 19 -2 19 9 0 9 -4 16 -9 16 -5 0 -11 10 -13 21 -5 38
-30 44 -95 27 -51 -15 -214 -51 -358 -80 -56 -11 -152 2 -241 32 -59 21 -176
78 -184 90 -7 12 -146 80 -162 80 -7 0 -21 -5 -30 -11z"/>
<path d="M3395 3353 c-44 -6 -48 -16 -27 -54 l19 -34 339 -6 c380 -7 401 -10
679 -100 126 -40 135 -42 315 -50 124 -5 200 -13 230 -23 25 -9 55 -16 67 -16
12 0 23 -5 25 -11 2 -6 21 -12 42 -14 21 -2 46 -11 55 -19 10 -9 42 -24 72
-35 30 -11 75 -27 102 -38 50 -19 69 -15 91 20 12 19 0 45 -25 58 -287 140
-443 180 -709 184 -133 1 -137 2 -275 49 -238 81 -292 88 -655 91 -173 1 -328
0 -345 -2z"/>
<path d="M4053 3009 c-31 -11 -40 -47 -17 -69 19 -17 183 -90 204 -90 6 0 33
-11 59 -25 27 -13 88 -32 135 -41 73 -15 96 -15 154 -5 113 20 159 62 115 106
-10 11 -25 15 -42 11 -136 -28 -147 -29 -206 -17 -33 7 -80 22 -105 33 -25 11
-74 30 -110 43 -36 13 -87 32 -115 43 -33 13 -57 17 -72 11z"/>
<path d="M2602 2118 c-19 -19 -14 -32 19 -57 33 -25 248 -133 289 -146 42 -13
165 -72 415 -198 132 -67 278 -141 325 -164 96 -48 218 -81 435 -119 218 -37
337 -40 535 -15 91 11 199 23 240 26 54 5 97 16 155 41 44 19 103 44 132 55
52 20 69 42 57 73 -17 45 -51 40 -206 -30 -66 -30 -96 -37 -186 -44 -59 -5
-161 -16 -227 -24 -174 -23 -269 -20 -469 14 -257 44 -396 86 -611 185 -16 8
-70 30 -120 50 -49 20 -144 66 -210 103 -199 109 -221 120 -312 158 -48 20
-118 52 -155 70 -74 37 -88 40 -106 22z"/>
</g>
</svg>
