<?xml version="1.0" standalone="no"?>
<!DOCTYPE svg PUBLIC "-//W3C//DTD SVG 20010904//EN"
 "http://www.w3.org/TR/2001/REC-SVG-20010904/DTD/svg10.dtd">
<svg version="1.0" xmlns="http://www.w3.org/2000/svg"
 width="1326.000000pt" height="1078.000000pt" viewBox="0 0 1326.000000 1078.000000"
 preserveAspectRatio="xMidYMid meet">

<g transform="translate(0.000000,1078.000000) scale(0.100000,-0.100000)"
fill="#000000" stroke="none">
<path d="M5453 10509 c-84 -75 -85 -76 -67 -117 14 -34 13 -37 -10 -61 -17
-19 -25 -42 -29 -81 -6 -67 2 -84 54 -110 21 -11 39 -25 39 -32 0 -17 -78 -3
-102 18 -25 23 -92 25 -114 2 -15 -15 -13 -21 22 -86 34 -62 37 -73 26 -96
-15 -34 -31 -33 -43 4 -6 17 -14 30 -19 30 -10 0 -60 -65 -60 -78 0 -20 71
-71 112 -83 24 -6 48 -14 53 -19 6 -4 25 -11 43 -15 38 -8 40 -24 9 -61 l-23
-26 -51 31 c-27 17 -60 31 -72 31 -29 0 -28 -34 2 -47 30 -14 87 -62 87 -74 0
-17 -30 -9 -42 11 -7 11 -33 30 -57 42 -38 18 -48 20 -78 9 -29 -11 -38 -10
-59 3 -18 12 -29 14 -43 6 -33 -17 -35 -46 -7 -96 14 -26 26 -56 26 -68 -1
-18 -7 -14 -41 24 -21 25 -46 60 -54 78 -28 64 -102 27 -75 -39 7 -16 10 -39
6 -52 -3 -14 1 -33 11 -46 15 -23 15 -25 -26 -62 l-41 -39 25 -6 c23 -6 56
-37 80 -78 6 -9 28 -19 50 -22 47 -7 95 -23 95 -34 0 -10 -90 6 -135 24 -21 9
-43 23 -49 32 -8 10 -23 14 -40 12 -22 -2 -31 -11 -43 -43 -24 -62 -27 -128
-9 -164 9 -17 23 -31 30 -31 8 0 27 -7 42 -15 22 -12 47 -14 107 -9 55 5 77 3
77 -5 0 -17 -48 -34 -100 -35 -43 -1 -45 -2 -48 -34 -3 -30 0 -34 43 -53 25
-11 49 -27 52 -35 3 -7 -7 -28 -22 -46 -22 -26 -26 -39 -22 -70 5 -37 5 -38
-28 -38 -24 0 -39 -7 -54 -26 -26 -33 -26 -49 -1 -74 11 -11 20 -22 20 -24 0
-2 -33 -3 -72 -2 l-73 1 0 -55 c0 -30 -3 -60 -7 -66 -9 -13 34 -46 70 -54 21
-4 18 -9 -33 -43 -41 -27 -62 -36 -80 -31 -14 3 -38 -1 -56 -10 -29 -15 -33
-14 -59 4 -16 11 -38 20 -50 20 -33 0 -80 -28 -80 -48 0 -24 63 -92 86 -92 10
0 28 -10 41 -21 17 -17 25 -19 36 -10 11 8 17 8 25 -1 14 -18 46 -98 40 -103
-2 -3 -30 20 -61 50 -63 61 -93 69 -128 34 -12 -12 -29 -19 -39 -16 -29 7 -44
-7 -31 -31 8 -15 7 -23 -4 -32 -20 -17 -19 -37 3 -44 33 -11 106 -82 99 -97
-4 -8 -20 -36 -35 -64 l-29 -50 -54 0 c-54 0 -54 0 -59 -35 -8 -47 -4 -56 36
-81 l34 -21 26 21 c32 25 91 38 107 22 15 -15 43 -14 84 5 29 15 38 15 59 3
23 -12 30 -11 64 9 22 12 44 22 51 22 6 0 29 18 51 41 35 35 39 45 36 82 -3
38 -6 42 -35 48 -18 3 -48 20 -68 38 -20 17 -42 31 -50 31 -8 0 -15 5 -15 10
0 25 61 9 100 -26 39 -35 41 -36 99 -29 66 8 73 13 120 96 27 48 47 69 67 69
2 0 4 -10 4 -23 0 -13 -14 -36 -31 -53 -37 -34 -89 -139 -89 -178 0 -42 -17
-66 -48 -66 -39 0 -72 -26 -72 -58 0 -14 -12 -43 -27 -64 -22 -33 -24 -42 -14
-64 9 -20 17 -25 39 -22 22 2 28 -1 30 -22 2 -14 10 -30 19 -37 14 -11 11 -20
-23 -75 -22 -35 -47 -83 -55 -108 -47 -134 -47 -141 -4 -122 31 15 31 6 0 -40
-38 -57 -29 -98 22 -98 33 0 29 -11 -21 -53 -27 -22 -49 -51 -56 -74 -7 -21
-18 -44 -24 -52 -11 -14 -30 -75 -46 -149 -5 -24 -19 -57 -31 -73 -20 -28 -20
-31 -4 -74 16 -39 47 -70 98 -93 4 -2 21 8 38 22 20 17 43 26 64 26 56 0 73
55 33 105 l-22 28 27 51 c15 28 27 65 27 81 0 17 14 53 30 80 18 30 30 64 30
86 0 22 10 51 25 73 14 20 25 40 25 44 0 4 -10 30 -22 59 l-22 53 23 45 c26
51 41 65 41 36 0 -11 -4 -23 -10 -26 -15 -9 -13 -122 3 -132 6 -4 23 -8 37 -8
20 0 25 -5 27 -25 0 -14 1 -31 2 -37 2 -21 35 -15 97 18 83 44 88 49 67 64
-15 11 -15 13 8 20 13 4 34 19 46 33 l23 27 -1 -95 c-2 -105 19 -261 35 -272
6 -4 30 -8 53 -8 48 0 55 -7 58 -64 1 -22 5 -57 10 -77 7 -36 6 -37 -31 -49
-53 -17 -64 -28 -64 -62 0 -24 -6 -31 -37 -44 -62 -24 -67 -29 -75 -72 -4 -22
-14 -54 -23 -72 -9 -17 -13 -35 -10 -40 3 -6 3 -10 -2 -10 -4 0 -23 -14 -40
-31 -30 -27 -33 -35 -34 -92 0 -34 -4 -82 -8 -107 l-7 -45 -17 40 c-28 64 -49
70 -96 26 -28 -26 -31 -35 -31 -86 0 -53 3 -61 40 -101 22 -24 40 -49 40 -55
0 -7 11 -27 25 -45 14 -18 25 -43 25 -56 0 -37 52 -111 94 -133 37 -20 38 -20
52 -1 21 29 17 53 -17 114 -55 98 -24 168 48 108 17 -14 51 -34 76 -45 25 -11
56 -30 69 -43 50 -50 161 -113 184 -104 8 3 14 12 14 21 0 8 5 24 12 35 13 21
-4 91 -42 164 -22 43 -18 62 5 29 8 -12 36 -35 62 -52 27 -17 63 -42 80 -57
27 -22 48 -28 115 -35 46 -5 90 -6 99 -4 24 8 50 70 36 84 -9 9 -8 14 3 21 9
5 19 5 24 0 5 -5 19 -4 33 3 19 8 30 7 52 -6 42 -25 67 -3 76 68 6 53 8 55 36
55 19 0 38 9 53 25 28 30 43 31 76 8 17 -12 54 -20 112 -24 96 -7 131 -22 101
-44 -14 -10 -22 -9 -42 6 -52 37 -72 34 -129 -18 -28 -26 -65 -55 -80 -64 -34
-19 -72 -88 -72 -129 0 -15 -11 -41 -24 -57 -40 -48 -44 -65 -48 -183 l-3
-114 28 -14 c30 -14 67 -80 66 -117 0 -11 -6 -29 -14 -39 -8 -11 -15 -23 -15
-27 0 -4 23 -35 51 -68 51 -61 75 -74 85 -46 4 8 11 15 16 15 11 0 1 -60 -13
-75 -21 -22 -8 -80 26 -120 39 -46 65 -40 40 9 -18 33 -13 45 11 26 11 -10 18
-10 22 -3 4 6 21 34 37 62 33 55 44 62 52 31 7 -26 67 -28 82 -3 8 14 12 15
25 4 23 -20 20 -31 -19 -67 -40 -36 -44 -65 -15 -109 11 -16 20 -35 20 -42 0
-22 -86 -73 -123 -73 -34 0 -34 -1 -41 -52 -9 -78 -7 -136 4 -143 6 -3 10 -15
10 -25 0 -11 11 -27 25 -36 36 -23 36 -88 1 -106 -34 -18 -98 -110 -86 -122 6
-6 10 -27 10 -48 0 -33 4 -40 38 -57 20 -11 66 -45 102 -76 64 -56 66 -56 114
-50 27 3 65 13 84 21 19 8 44 14 56 14 19 -1 17 -4 -12 -29 -38 -32 -73 -43
-149 -45 l-52 -1 -65 71 c-77 85 -107 97 -145 60 -15 -15 -32 -26 -38 -26 -27
0 -22 -23 16 -68 23 -27 41 -51 41 -55 0 -19 -53 -3 -96 30 -40 31 -58 38
-107 41 -62 5 -142 -8 -214 -35 -28 -10 -57 -13 -82 -9 -31 5 -50 0 -93 -23
-55 -28 -163 -47 -174 -29 -3 4 11 17 30 29 31 18 36 26 36 59 0 49 -10 55
-54 33 -45 -21 -56 -12 -63 54 -3 26 -10 53 -15 60 -15 18 -64 25 -100 14 -18
-5 -62 -16 -98 -24 -56 -12 -66 -17 -75 -41 -7 -21 -5 -35 8 -58 10 -17 16
-32 14 -35 -10 -9 -39 12 -48 33 -15 42 -69 24 -69 -22 0 -16 9 -25 30 -33 17
-5 43 -24 57 -42 24 -28 28 -30 39 -14 11 15 13 15 23 -4 6 -11 11 -30 11 -43
0 -13 13 -39 29 -58 l28 -35 40 28 c21 15 48 27 59 27 16 -1 15 -3 -7 -15 -15
-8 -35 -35 -48 -64 -29 -69 -76 -136 -112 -162 -24 -17 -40 -20 -77 -16 -26 3
-54 1 -63 -4 -24 -12 -123 -170 -112 -179 4 -4 38 -11 75 -14 40 -4 81 -14
100 -26 18 -11 38 -20 44 -20 17 0 37 49 43 105 6 48 7 50 36 48 46 -2 75 6
75 22 0 21 10 19 37 -7 21 -20 27 -21 56 -9 61 24 67 25 67 4 0 -11 -11 -37
-26 -58 -34 -51 -29 -83 19 -114 20 -13 37 -32 37 -41 0 -10 -21 -38 -47 -64
-42 -40 -46 -48 -35 -63 6 -10 15 -25 19 -33 3 -8 17 -29 30 -47 l23 -32 -22
-33 c-13 -19 -35 -47 -50 -63 -28 -30 -32 -43 -43 -132 -7 -58 -20 -72 -84
-97 -24 -9 -63 -32 -86 -51 -36 -30 -50 -35 -93 -35 -28 0 -54 -4 -57 -10 -3
-5 -14 -10 -24 -10 -9 0 -39 -11 -67 -24 -27 -14 -65 -32 -84 -40 -19 -9 -46
-23 -59 -31 -16 -9 -40 -12 -72 -8 -39 5 -50 2 -68 -16 -12 -12 -21 -34 -21
-51 0 -29 -2 -30 -45 -30 -91 0 -152 -49 -125 -99 13 -26 49 -41 96 -41 24 0
34 -5 34 -15 0 -11 -12 -15 -50 -15 -42 0 -52 -4 -66 -25 -15 -23 -15 -27 10
-69 14 -25 32 -49 39 -53 6 -4 43 -8 81 -8 46 0 70 -4 73 -12 3 -8 -5 -13 -20
-13 -24 0 -57 -27 -57 -47 0 -5 10 -19 23 -31 32 -30 140 -32 165 -3 10 10 37
24 61 30 41 12 66 31 101 79 13 18 28 21 114 24 l100 3 20 -40 c20 -38 24 -40
79 -47 32 -4 68 -15 80 -24 21 -15 18 -15 -57 -12 l-79 3 -9 -30 c-11 -43 -4
-57 48 -84 45 -24 46 -24 92 -8 26 10 59 17 75 17 15 0 55 11 88 25 34 13 65
22 70 20 12 -8 31 -73 24 -84 -3 -6 4 -28 15 -51 15 -29 27 -40 44 -40 13 0
39 -12 59 -28 135 -102 210 -122 312 -83 27 11 69 24 93 31 37 10 41 13 32 30
-14 26 -14 26 20 40 17 7 38 26 47 41 20 34 33 36 58 9 23 -25 25 -25 97 2 37
13 64 29 70 43 9 20 64 52 74 42 3 -3 -11 -17 -30 -32 -24 -18 -36 -36 -36
-52 0 -20 -10 -28 -53 -48 -30 -13 -61 -35 -70 -49 -12 -18 -26 -26 -47 -26
-42 0 -73 -48 -78 -122 -3 -36 0 -63 7 -72 18 -22 1 -26 -96 -25 -67 2 -97 -2
-122 -15 -42 -22 -71 -15 -93 23 -24 44 -83 59 -141 37 -58 -22 -77 -20 -117
9 -39 29 -85 32 -127 10 -80 -42 -119 -53 -170 -48 -72 7 -98 -1 -113 -37 -11
-28 -11 -34 9 -60 47 -64 10 -93 -129 -100 l-95 -5 -3 -50 c-2 -34 -10 -57
-25 -73 -16 -17 -23 -41 -28 -93 -7 -82 -21 -102 -99 -136 -68 -31 -90 -50
-90 -79 0 -26 -26 -44 -65 -44 -19 0 -39 -12 -64 -40 -30 -33 -43 -40 -73 -40
-39 0 -48 -11 -48 -63 0 -18 -6 -44 -14 -58 -7 -14 -16 -37 -19 -51 -5 -19
-23 -33 -71 -56 -35 -17 -100 -55 -143 -85 -62 -42 -89 -55 -131 -60 -79 -9
-130 -42 -144 -91 -6 -23 -20 -50 -30 -62 -25 -28 -23 -36 19 -63 35 -22 37
-23 70 -7 18 9 44 16 57 16 18 0 27 8 35 31 l11 32 62 -7 c75 -9 88 -18 88
-63 0 -18 9 -52 20 -73 19 -37 23 -40 63 -40 31 0 45 5 55 20 6 11 27 26 45
33 17 8 40 23 50 35 18 19 18 21 -4 41 -19 18 -21 24 -11 45 13 30 107 94 154
106 18 5 49 14 68 21 19 6 41 14 49 16 10 2 12 13 8 38 -6 34 -5 35 27 35 24
0 38 7 49 22 l15 23 13 -27 c8 -19 20 -28 36 -28 33 0 103 37 103 55 0 11 13
15 53 15 61 0 69 -4 91 -47 22 -43 25 -44 69 -23 l38 19 47 -30 c25 -16 57
-29 70 -29 13 0 33 -5 45 -12 12 -6 36 -11 54 -10 28 1 33 -2 33 -22 0 -35 20
-46 91 -48 l63 -3 11 70 10 70 49 25 c44 23 86 68 86 93 0 4 -13 13 -30 18
-35 13 -36 16 -10 44 12 12 22 42 26 75 8 68 7 66 46 74 18 3 60 20 93 36 33
16 68 30 78 30 10 0 28 5 40 12 12 6 48 11 79 10 31 -2 59 2 62 7 4 5 39 7 84
4 65 -5 86 -11 132 -39 33 -21 61 -47 70 -66 22 -48 56 -56 123 -28 51 21 60
22 99 11 24 -7 50 -20 59 -28 21 -18 45 -19 86 -2 28 11 34 11 52 -5 18 -16
21 -16 50 -2 16 9 41 16 54 16 14 0 30 6 36 14 10 11 5 22 -21 51 l-32 38 33
-8 c28 -6 37 -3 50 13 17 20 99 52 135 52 12 0 41 -11 66 -24 33 -18 45 -30
46 -48 0 -31 11 -48 32 -48 16 0 71 -48 115 -99 25 -30 89 -29 114 2 10 13 28
29 39 35 12 6 29 32 39 58 15 39 16 52 6 85 -9 30 -17 39 -34 39 -13 0 -31 6
-41 13 -17 13 -16 16 22 45 37 30 40 31 45 12 7 -26 58 -27 74 -1 9 14 19 17
50 12 37 -6 38 -8 41 -51 2 -32 9 -50 25 -62 30 -24 45 -22 91 9 32 23 51 28
105 30 139 3 177 9 214 31 42 24 101 28 237 13 64 -7 87 -15 153 -55 43 -25
81 -46 86 -46 4 0 28 15 52 34 50 39 190 102 261 117 46 10 82 41 114 95 12
20 8 21 87 -22 25 -14 30 -14 62 6 37 23 40 30 50 109 7 51 9 54 51 72 24 11
71 21 106 24 62 3 64 5 109 56 42 48 47 60 53 118 6 56 4 69 -13 92 l-21 28
26 31 c36 43 27 56 -47 63 -130 14 -166 10 -260 -33 -80 -36 -97 -40 -167 -39
-122 1 -167 10 -167 34 0 14 8 21 27 23 33 4 77 67 59 85 -6 6 -51 13 -100 15
-71 3 -94 1 -112 -12 -26 -17 -109 -22 -109 -6 0 6 10 10 23 10 12 0 43 11 69
25 38 20 55 24 92 19 65 -9 92 1 145 56 46 47 51 50 100 50 32 0 53 5 56 13 3
6 6 41 8 77 l2 64 -47 9 c-43 8 -47 11 -37 29 6 10 30 28 55 38 24 11 44 24
44 30 0 24 18 -2 24 -34 5 -24 13 -36 30 -40 44 -11 129 28 139 63 2 10 17 25
33 32 37 18 43 57 14 84 -11 10 -20 29 -20 43 0 14 -10 36 -22 49 -19 20 -19
23 -4 23 9 0 33 -7 53 -15 45 -19 66 -19 103 0 19 10 30 24 32 42 2 21 12 32
40 45 20 10 41 26 47 35 5 10 12 76 16 147 8 138 9 140 74 186 35 24 45 116
22 190 -15 46 -17 79 -13 150 l5 91 -34 35 c-19 19 -54 47 -79 61 -25 14 -82
50 -127 80 -46 30 -104 61 -130 70 -26 9 -58 22 -72 30 -15 7 -34 13 -44 13
-10 0 -27 4 -37 10 -22 12 -339 24 -393 14 -50 -8 -107 -57 -107 -92 0 -16
-13 -39 -32 -59 -30 -31 -33 -32 -50 -16 -17 15 -19 15 -39 -3 -21 -19 -22
-19 -33 0 -36 61 -54 81 -71 84 -48 7 -65 13 -65 23 0 24 61 97 92 110 18 7
45 26 60 41 15 17 37 28 52 28 22 0 26 4 26 29 0 17 10 42 23 57 l23 27 -38
96 c-22 52 -46 103 -54 112 -7 8 -14 21 -14 29 0 15 -121 129 -159 149 -40 21
-71 53 -89 91 -9 19 -18 38 -20 43 -2 4 14 7 36 7 22 0 45 6 51 14 11 13 17
12 46 -5 54 -32 49 -6 -15 72 -33 40 -60 78 -60 84 0 6 -21 51 -46 101 -42 82
-62 139 -77 222 -5 24 -3 32 8 32 21 0 19 24 -4 44 -11 10 -31 48 -46 84 -19
50 -38 78 -73 109 -42 37 -46 46 -47 85 0 50 -9 68 -35 68 -25 0 -80 65 -80
96 0 19 -8 28 -32 39 -18 7 -46 27 -62 44 -17 18 -40 31 -54 31 -13 0 -50 15
-81 34 -31 18 -73 39 -93 45 -40 13 -128 103 -128 131 0 18 -94 120 -110 120
-15 0 -12 25 7 64 14 31 15 40 3 77 -8 23 -22 52 -32 64 -10 13 -18 36 -18 52
0 29 -11 49 -67 123 -36 47 -42 70 -18 70 8 0 15 2 15 5 0 3 -7 22 -15 42 -8
19 -15 56 -15 82 0 26 -5 52 -11 58 -25 25 -55 228 -37 251 21 24 -8 59 -75
91 -36 17 -73 31 -83 31 -32 0 -44 14 -52 62 -13 65 -76 174 -117 201 -19 12
-39 34 -44 48 -7 20 -18 28 -48 32 -28 5 -57 23 -104 63 -69 61 -112 84 -157
84 -15 0 -34 6 -40 12 -7 7 -38 13 -72 13 -46 0 -65 -5 -87 -23 -92 -74 -161
-100 -189 -72 -6 6 -58 15 -117 20 -69 6 -115 15 -132 26 -23 15 -28 15 -64 1
-52 -21 -124 -4 -129 31 -4 28 0 28 48 -4 40 -27 41 -27 78 -10 25 11 70 18
128 20 49 2 106 4 126 5 30 1 40 7 52 29 8 15 28 42 45 60 30 33 33 33 89 26
31 -3 65 -11 74 -15 13 -7 27 -1 57 26 21 19 65 44 97 55 69 24 83 35 66 52
-7 7 -12 20 -12 29 0 12 -12 18 -44 21 -28 3 -57 16 -80 34 -30 24 -36 35 -36
66 0 39 -19 58 -59 58 -11 0 -23 5 -27 11 -4 7 10 9 47 4 52 -6 56 -5 97 30
23 20 42 45 42 56 0 38 19 59 61 65 49 8 70 36 74 96 6 94 20 122 71 143 18 7
35 23 39 35 4 11 18 25 31 30 14 6 27 18 30 27 3 10 9 26 14 35 5 9 12 47 16
85 8 85 12 91 65 117 l44 21 -3 57 c-3 38 2 68 12 89 9 18 16 47 16 66 0 67
29 106 158 214 47 40 49 65 11 160 -53 134 -104 169 -225 156 -29 -3 -56 -2
-59 3 -9 14 -115 23 -130 10 -18 -15 -162 -4 -183 13 -8 6 -51 13 -97 15 -74
4 -85 2 -104 -17 -24 -24 -39 -26 -66 -8 -84 56 -232 67 -286 21 -9 -8 -38
-14 -67 -14 -45 0 -55 -4 -78 -29 -41 -47 -96 -64 -196 -62 l-86 2 -27 -55
c-27 -55 -57 -78 -77 -58 -15 15 19 59 97 128 36 31 65 62 65 68 0 21 95 127
128 143 29 14 32 20 32 59 0 40 -2 44 -24 44 -16 0 -26 -7 -29 -21 -4 -16 -12
-20 -34 -17 -22 2 -29 9 -31 30 -2 15 2 37 8 48 9 16 8 25 -1 36 -10 12 -8 19
12 39 13 13 38 26 54 29 17 3 35 13 40 23 35 60 110 114 198 142 28 10 43 23
57 51 11 22 20 45 20 52 0 17 64 68 86 68 9 0 33 5 53 11 41 13 92 83 93 131
1 15 7 33 15 39 22 19 15 53 -19 80 l-31 26 36 37 c40 39 43 52 26 89 -9 20
-21 26 -66 31 -34 4 -68 2 -88 -5 -28 -10 -37 -10 -58 4 -18 12 -27 13 -36 4
-18 -18 -13 -48 9 -54 24 -6 26 -19 3 -27 -9 -4 -25 1 -37 13 -12 11 -30 20
-41 20 -11 1 -37 4 -58 7 -31 5 -43 2 -73 -21 -34 -26 -38 -27 -75 -15 -29 10
-48 11 -72 3 -18 -5 -58 -8 -88 -5 -39 3 -65 -1 -87 -12 -17 -9 -45 -16 -62
-16 -26 0 -35 -7 -58 -45 -30 -50 -37 -53 -51 -26 -8 14 -6 25 10 46 l21 26
-23 25 c-15 16 -33 24 -55 24 -26 0 -36 -6 -53 -36 -24 -41 -26 -55 -9 -101
13 -35 8 -46 -28 -57 -32 -10 -40 31 -13 60 19 21 20 23 3 32 -16 9 -16 11 3
36 21 26 21 57 0 84 -15 19 -36 15 -70 -14 l-32 -27 -7 34 c-8 42 -50 79 -88
79 -22 0 -46 -14 -87 -51z m120 9 c9 -7 20 -31 25 -53 10 -49 31 -56 73 -21
38 32 49 33 49 2 0 -15 -12 -35 -32 -51 -27 -23 -30 -30 -20 -46 7 -10 12 -26
12 -34 0 -9 7 -29 15 -45 19 -36 51 -39 89 -9 28 22 33 50 16 94 -12 31 0 59
31 76 27 14 50 -4 31 -23 -21 -21 -14 -72 13 -98 l25 -23 24 22 c14 13 30 36
36 52 10 23 19 29 42 29 16 0 43 7 60 16 23 12 46 15 82 10 30 -3 64 -1 84 6
27 10 38 9 65 -5 30 -16 36 -16 69 -3 19 8 38 22 41 31 9 22 38 19 44 -5 6
-23 16 -25 44 -9 15 8 25 6 45 -10 30 -23 28 -24 105 36 55 43 82 52 94 33 4
-6 15 -8 24 -5 11 3 24 -2 32 -11 12 -15 9 -21 -24 -49 -46 -40 -48 -71 -7
-110 25 -24 28 -31 17 -44 -8 -9 -19 -36 -26 -60 -17 -61 -59 -101 -105 -101
-47 0 -102 -48 -132 -116 -21 -48 -26 -51 -95 -79 -57 -22 -86 -41 -131 -87
-31 -32 -62 -58 -67 -58 -6 0 -26 -14 -46 -31 -30 -27 -35 -37 -30 -60 3 -15
1 -30 -4 -34 -15 -9 -14 -67 2 -88 6 -10 32 -21 57 -25 l45 -9 -28 -13 c-16
-8 -55 -51 -87 -97 -32 -46 -76 -98 -98 -116 -45 -36 -77 -74 -112 -131 -22
-37 -23 -39 -5 -52 12 -9 23 -10 36 -4 10 6 29 10 42 10 26 0 77 50 77 74 0 7
9 21 19 30 16 15 30 17 83 11 52 -5 73 -3 122 15 32 12 67 33 79 46 15 18 31
24 61 24 27 0 52 9 80 28 70 48 168 32 294 -48 21 -14 24 -13 48 18 24 30 30
32 85 32 36 0 73 -7 91 -16 29 -15 106 -20 268 -16 25 0 49 -3 54 -8 5 -5 41
-7 80 -4 66 4 74 3 110 -23 30 -21 46 -44 67 -98 16 -38 29 -81 29 -94 0 -22
-41 -70 -100 -116 -14 -11 -40 -38 -58 -60 -25 -31 -32 -49 -32 -85 -1 -25 -7
-56 -15 -70 -8 -14 -14 -52 -15 -87 l0 -63 -40 -20 c-48 -25 -56 -38 -63 -117
-4 -35 -12 -74 -19 -87 -20 -38 -95 -114 -128 -131 -17 -9 -35 -26 -39 -38
-22 -57 -31 -96 -31 -129 0 -33 -3 -36 -47 -53 -64 -24 -70 -30 -78 -76 -9
-55 -34 -69 -122 -69 -69 0 -73 -1 -79 -24 -8 -35 0 -44 52 -52 52 -7 52 -20
1 -47 -43 -22 -40 -37 8 -37 21 0 52 -12 86 -36 29 -19 66 -38 81 -41 45 -9
43 -22 -9 -44 -26 -11 -63 -34 -81 -52 -28 -27 -35 -30 -52 -19 -11 6 -48 12
-82 12 -63 0 -63 0 -118 -54 -60 -58 -81 -66 -205 -70 -38 -2 -86 -10 -105
-19 -32 -14 -36 -14 -69 9 -44 30 -111 34 -111 7 0 -26 35 -80 61 -94 15 -8
48 -10 99 -6 42 3 81 2 86 -3 5 -5 55 -13 111 -19 55 -5 110 -14 121 -20 31
-17 94 -13 123 7 15 9 45 31 68 48 52 40 99 49 147 29 20 -8 47 -15 61 -15 32
0 45 -7 147 -85 48 -36 96 -65 107 -65 11 0 23 -8 26 -17 4 -10 17 -26 30 -36
33 -26 29 -58 -12 -97 -23 -23 -41 -53 -51 -87 -9 -30 -25 -59 -37 -68 -20
-14 -22 -24 -23 -120 -1 -99 -3 -107 -26 -133 -14 -15 -33 -42 -43 -60 -14
-29 -20 -33 -42 -28 -20 6 -31 0 -58 -30 -18 -20 -55 -50 -81 -68 -27 -17 -50
-40 -52 -51 -1 -11 -12 -39 -25 -62 -17 -33 -30 -46 -62 -56 -25 -8 -47 -25
-60 -45 -15 -24 -25 -29 -40 -24 -11 3 -36 6 -54 7 -29 0 -38 -5 -50 -30 -9
-16 -20 -34 -26 -38 -14 -11 -142 3 -181 19 -45 19 -55 18 -99 -11 -34 -24
-39 -25 -54 -10 -10 8 -22 15 -28 15 -12 0 -23 -56 -23 -119 0 -40 -2 -43 -22
-36 -13 4 -49 10 -81 14 -77 9 -92 -2 -84 -57 7 -39 6 -41 -26 -51 -51 -16
-99 -1 -117 37 l-16 32 -22 -22 c-26 -26 -28 -24 -64 42 -15 27 -20 29 -38 20
-18 -10 -26 -5 -64 36 -74 83 -88 33 -29 -110 37 -92 37 -117 -1 -124 -9 -2
-70 32 -135 75 -175 114 -190 123 -213 123 -61 0 -78 -91 -33 -165 28 -45 32
-75 11 -75 -23 0 -65 57 -72 98 -3 20 -15 46 -25 57 -10 11 -25 36 -33 55 -8
19 -29 48 -45 63 -24 23 -31 37 -31 67 0 86 44 123 68 57 7 -18 12 -41 12 -50
0 -18 37 -31 67 -25 10 2 16 10 13 19 -2 8 -3 64 -1 124 l2 110 36 37 c35 36
73 121 73 164 0 16 10 24 39 32 44 14 62 31 76 76 6 18 18 32 30 34 11 2 35
15 52 29 32 23 33 25 18 53 -8 16 -15 55 -15 89 0 68 -12 81 -74 81 -39 0 -52
13 -47 48 1 13 -5 32 -14 42 -9 10 -14 23 -11 29 4 6 2 19 -3 30 -7 11 -8 54
-3 112 7 89 8 94 34 107 24 11 31 10 67 -12 22 -14 42 -30 46 -36 14 -22 64
-38 142 -45 57 -5 83 -3 88 5 13 22 -48 70 -128 101 -99 38 -148 68 -182 114
l-27 35 28 56 c15 30 32 58 37 61 5 3 21 -6 35 -20 20 -20 25 -35 24 -67 -3
-68 53 -137 80 -99 17 25 0 159 -26 209 -13 25 -27 60 -31 78 -3 17 -11 32
-16 32 -12 0 -49 -37 -49 -49 0 -5 -13 -14 -29 -21 -16 -6 -45 -29 -64 -51
-20 -21 -41 -39 -47 -39 -8 0 -10 -9 -6 -25 5 -19 -1 -35 -25 -64 l-31 -39 23
-31 c22 -30 22 -34 9 -73 -19 -54 -59 -85 -89 -69 -11 6 -24 23 -27 36 -13 50
-57 18 -52 -37 2 -28 8 -35 36 -43 17 -5 32 -12 32 -16 0 -13 -52 -49 -71 -49
-16 0 -19 8 -19 45 0 25 -2 45 -5 45 -3 0 -22 -7 -42 -15 l-35 -15 4 59 c4 51
9 65 41 100 28 31 37 50 37 76 0 38 8 48 60 73 43 21 83 87 69 113 -9 17 -13
16 -60 -7 -47 -24 -118 -102 -119 -130 0 -23 -31 -70 -66 -104 -51 -48 -81
-129 -57 -154 4 -3 12 -23 19 -42 11 -34 10 -40 -13 -75 -14 -22 -28 -59 -31
-86 -2 -27 -14 -61 -24 -76 -11 -15 -22 -47 -25 -70 -6 -41 -46 -125 -68 -139
-6 -4 4 -19 24 -36 36 -30 38 -62 4 -62 -9 0 -34 -12 -54 -26 -51 -35 -86 -24
-110 33 -17 41 -17 42 7 74 15 21 24 46 24 70 0 20 6 42 14 48 8 7 17 28 21
49 4 20 10 42 15 47 4 6 10 22 14 37 9 38 56 90 122 133 46 31 54 40 48 58
-12 40 -24 44 -49 15 -25 -29 -68 -38 -81 -17 -3 6 10 34 30 62 33 47 34 53
19 65 -9 6 -23 12 -30 12 -7 0 -13 6 -13 13 0 24 40 120 58 141 11 12 29 40
42 63 25 46 23 74 -11 117 -19 24 -28 27 -56 23 -40 -7 -42 5 -8 37 16 15 25
34 25 54 0 33 22 52 58 52 26 0 48 28 57 70 14 71 47 146 81 181 39 40 60 95
43 116 -30 36 -89 -5 -142 -98 -21 -38 -33 -48 -59 -51 -18 -3 -41 -8 -51 -13
-14 -6 -20 -2 -24 14 -6 24 -77 61 -118 61 -26 0 -36 15 -51 75 -7 30 11 33
58 9 30 -16 31 -16 55 15 14 17 28 31 32 31 5 0 24 -11 44 -24 l36 -25 25 20
c29 23 34 49 11 49 -18 0 -95 33 -95 40 1 10 110 68 139 75 33 7 56 29 46 45
-8 14 -29 13 -84 -5 -98 -30 -129 -37 -140 -31 -20 13 -12 27 24 42 19 8 35
18 35 23 0 4 -22 19 -48 31 -42 20 -48 27 -49 54 0 17 -2 40 -4 51 -4 18 1 20
51 20 31 0 74 -6 97 -14 46 -15 93 -8 93 13 0 8 -21 24 -47 36 -108 49 -107
49 -71 74 28 20 57 20 82 1 12 -9 42 -15 79 -15 55 0 58 1 55 23 -2 17 -10 23
-38 25 -87 7 -120 40 -90 90 21 35 44 40 74 17 24 -18 72 -20 82 -3 10 16 -48
61 -133 102 -77 37 -93 55 -43 48 50 -7 150 72 124 98 -11 11 -85 14 -145 5
-36 -6 -53 -3 -84 14 -47 25 -55 36 -55 79 0 34 34 112 49 112 4 0 16 -8 25
-19 38 -42 221 -77 233 -45 12 31 -62 84 -117 84 -31 0 -70 30 -70 53 0 8 -11
19 -25 25 -32 15 -31 22 5 57 l30 28 -20 33 c-11 17 -18 39 -14 47 3 9 0 25
-6 37 -8 16 -9 25 -1 33 7 7 16 -3 30 -35 12 -28 28 -49 41 -53 14 -4 32 -29
50 -68 23 -52 34 -65 71 -83 91 -45 122 -55 132 -45 14 14 -48 85 -106 121
-40 26 -46 34 -41 54 4 16 -4 41 -26 80 -35 62 -34 77 4 56 17 -9 41 -11 76
-6 48 6 54 5 86 -23 57 -50 118 -56 121 -11 0 14 1 30 2 36 1 7 11 14 24 18
23 5 57 61 57 94 0 24 -19 42 -45 42 -41 0 -160 43 -185 66 -21 20 -22 24 -7
24 10 0 29 -7 42 -16 28 -19 40 -13 61 28 19 36 12 85 -16 121 -21 26 -26 62
-11 71 5 3 35 -8 67 -25 52 -28 61 -30 95 -20 78 23 73 53 -14 98 -46 23 -49
26 -43 55 3 17 6 42 6 55 0 18 8 28 30 36 33 12 37 31 15 61 -24 31 -18 44 41
102 58 56 78 63 107 42z m-413 -1100 c0 -14 -17 -9 -44 13 -38 30 -32 43 9 17
19 -13 35 -26 35 -30z m-585 -1072 l35 -24 41 20 41 19 25 -23 c23 -22 25 -22
37 -5 16 21 39 22 55 3 17 -20 -50 -60 -87 -53 -17 3 -45 -2 -71 -14 -41 -18
-44 -18 -56 -2 -7 9 -28 22 -46 28 -18 6 -39 21 -47 33 -14 21 -9 28 35 41 1
1 18 -10 38 -23z m257 -71 c0 -6 -11 -18 -24 -28 -20 -15 -34 -17 -77 -11 -56
7 -62 18 -8 16 18 -1 46 8 62 18 31 20 46 22 47 5z m-239 -102 c22 -15 50 -45
64 -66 13 -21 48 -53 78 -72 29 -19 57 -40 61 -46 3 -6 22 -17 40 -25 39 -16
46 -48 13 -57 -11 -3 -23 -15 -26 -27 -7 -27 -61 -56 -76 -41 -17 17 -42 13
-102 -16 -47 -23 -59 -25 -75 -15 -28 17 -58 15 -107 -9 -41 -20 -45 -20 -68
-5 -14 9 -25 20 -25 25 0 18 29 32 66 32 137 0 176 6 202 32 34 34 25 41 -28
22 -23 -8 -53 -15 -66 -15 -25 0 -45 21 -26 28 7 2 12 10 12 18 0 22 49 36
103 30 36 -4 47 -2 47 9 0 20 -17 28 -77 36 -43 6 -59 14 -90 47 -21 21 -45
41 -53 44 -12 4 -12 8 3 31 10 15 26 27 37 27 11 0 24 9 30 20 14 26 16 25 63
-7z m987 -532 c0 -20 6 -32 19 -36 15 -4 20 -20 25 -76 4 -39 5 -74 1 -77 -12
-12 -25 24 -25 70 0 41 -5 54 -36 88 -37 40 -38 60 -3 60 14 0 19 -7 19 -29z
m-330 -46 c0 -15 -58 -50 -68 -41 -8 8 39 56 55 56 7 0 13 -7 13 -15z m200
-32 c-1 -18 -18 -35 -24 -24 -4 6 -4 16 -1 21 7 12 25 13 25 3z m-30 -74 c0
-21 73 -99 122 -129 27 -17 71 -38 96 -46 103 -33 122 -56 41 -48 -55 5 -97
23 -119 49 -8 9 -30 25 -49 34 -32 16 -41 17 -73 5 l-38 -13 0 33 c0 19 -7 39
-15 46 -19 16 -19 25 1 55 17 26 34 33 34 14z m-289 -62 c-8 -8 -11 -5 -11 9
0 27 14 41 18 19 2 -9 -1 -22 -7 -28z m2339 -427 c6 -19 16 -53 22 -75 6 -22
12 -46 14 -52 2 -8 19 -13 39 -13 41 0 144 -45 152 -67 3 -8 -4 -21 -16 -29
-27 -19 -27 -31 0 -39 18 -6 20 -12 15 -43 -5 -36 3 -75 30 -140 8 -18 14 -53
14 -78 0 -25 5 -54 11 -65 7 -15 7 -24 -1 -35 -19 -22 -4 -76 33 -120 18 -21
38 -51 45 -66 11 -27 10 -29 -28 -48 -45 -23 -47 -29 -22 -60 17 -22 19 -22
50 -6 40 21 39 21 58 -15 15 -31 15 -43 -2 -140 -6 -34 -3 -38 37 -65 25 -18
52 -48 68 -79 34 -65 130 -161 173 -173 18 -5 50 -21 72 -36 21 -14 57 -31 79
-37 46 -12 127 -74 127 -96 0 -8 27 -42 60 -75 44 -44 60 -67 60 -87 0 -31 40
-90 74 -108 13 -7 28 -29 35 -55 7 -24 20 -56 29 -73 8 -16 16 -54 18 -83 1
-29 9 -63 18 -77 9 -13 16 -36 16 -51 0 -30 90 -222 127 -272 13 -18 23 -42
21 -55 -3 -19 -10 -22 -56 -25 -53 -3 -54 -2 -103 48 -65 67 -106 85 -159 69
-30 -9 -43 -9 -54 0 -8 6 -52 14 -98 18 l-83 5 -40 -35 c-31 -28 -37 -38 -28
-48 9 -9 23 -7 63 10 55 24 81 21 116 -11 21 -18 24 -19 52 -4 38 20 104 21
140 2 15 -8 38 -28 50 -46 13 -17 39 -38 56 -45 37 -16 51 -31 75 -78 9 -17
38 -48 65 -67 27 -19 78 -63 113 -97 51 -49 71 -77 97 -140 18 -43 39 -90 46
-106 12 -24 11 -30 -7 -50 -12 -12 -23 -31 -25 -42 -2 -13 -12 -21 -31 -23
-18 -2 -32 -13 -42 -32 -9 -17 -28 -33 -50 -40 -20 -7 -43 -24 -53 -38 -9 -15
-24 -34 -33 -43 -21 -21 -34 -78 -22 -90 5 -5 31 -13 57 -18 53 -10 61 -17 76
-73 10 -34 14 -38 44 -38 22 0 36 6 40 17 6 14 11 11 35 -17 30 -37 51 -34 51
7 0 15 11 36 25 49 16 15 25 34 25 54 0 19 9 40 25 55 20 21 34 25 87 25 35 0
68 4 75 8 17 11 272 -13 285 -26 7 -7 24 -12 38 -12 14 0 31 -5 38 -12 6 -6
22 -12 35 -14 13 -1 45 -13 69 -26 45 -23 63 -34 216 -133 l77 -50 -4 -106
c-2 -71 1 -109 8 -113 13 -8 14 -102 2 -164 -5 -26 -17 -49 -30 -58 -36 -26
-48 -65 -56 -184 -4 -63 -11 -123 -16 -133 -6 -9 -25 -23 -44 -31 -25 -11 -36
-23 -42 -47 -13 -47 -34 -57 -78 -36 -41 20 -70 21 -114 6 -39 -14 -40 -33 -2
-49 32 -13 44 -31 34 -56 -3 -9 4 -26 18 -40 l24 -26 -32 -27 c-18 -15 -33
-32 -33 -38 0 -6 -16 -21 -36 -32 -28 -17 -39 -19 -50 -10 -8 6 -14 16 -14 22
0 6 -12 23 -27 39 l-26 28 -33 -25 c-18 -14 -44 -29 -59 -35 -14 -5 -35 -25
-46 -44 -11 -19 -33 -39 -50 -46 -16 -7 -28 -18 -26 -24 5 -15 77 -20 90 -7 6
6 21 11 34 11 28 0 41 -28 35 -71 -4 -26 -8 -29 -41 -29 -26 0 -47 -8 -71 -30
-19 -16 -40 -29 -46 -30 -7 0 -19 -11 -28 -25 -15 -22 -23 -25 -82 -25 -50 0
-76 -6 -115 -26 -41 -20 -64 -25 -117 -24 -37 1 -73 1 -79 1 -27 -2 -11 -19
31 -35 25 -9 50 -24 56 -32 18 -20 156 -20 164 1 7 20 150 22 144 3 -3 -7 -20
-18 -39 -24 -36 -12 -46 -35 -35 -79 8 -30 45 -41 156 -49 91 -7 96 -6 239 54
70 29 79 30 163 24 48 -4 88 -10 88 -14 0 -4 -9 -15 -20 -25 -26 -23 -25 -47
1 -71 18 -16 20 -27 17 -73 -4 -49 -9 -58 -51 -98 -35 -33 -54 -43 -79 -43
-50 0 -156 -39 -173 -63 -8 -12 -15 -43 -15 -69 0 -35 -6 -54 -20 -68 -26 -26
-30 -25 -90 8 l-51 27 -22 -27 c-12 -15 -30 -38 -40 -52 -12 -18 -41 -32 -103
-51 -118 -36 -183 -66 -227 -104 -20 -18 -40 -31 -44 -29 -5 1 -40 22 -79 46
-70 42 -72 42 -211 53 l-140 12 -45 -27 c-47 -27 -117 -39 -222 -36 -49 1 -65
-4 -97 -26 -56 -39 -73 -28 -65 40 7 64 5 66 -94 66 -45 0 -70 -4 -74 -12 -3
-9 -8 -8 -16 5 -17 26 -32 21 -95 -33 -53 -47 -59 -50 -79 -37 -65 43 -62 42
-105 23 -22 -10 -50 -29 -62 -42 -25 -27 -51 -31 -68 -10 -29 34 -119 24 -228
-27 -18 -8 -31 -6 -57 8 -30 16 -38 17 -66 5 -34 -14 -66 -53 -56 -69 4 -5 28
-13 54 -16 96 -13 103 -22 42 -50 -39 -17 -41 -17 -60 0 -19 17 -22 17 -62 2
-41 -16 -43 -16 -84 8 -50 30 -143 35 -164 10 -24 -28 -64 -18 -91 22 -13 21
-38 44 -54 52 -17 7 -41 23 -53 35 -22 20 -34 21 -178 19 -137 -1 -158 -4
-188 -22 -18 -12 -42 -21 -52 -21 -11 0 -41 -11 -68 -25 -27 -14 -63 -25 -80
-25 -39 0 -55 -24 -63 -93 -4 -33 -15 -62 -30 -80 -29 -36 -31 -77 -3 -84 30
-8 24 -20 -25 -49 -56 -33 -75 -58 -75 -104 0 -51 -11 -62 -56 -58 -40 3 -43
8 -29 54 9 28 -17 38 -61 24 -26 -9 -39 -8 -63 4 -16 9 -40 16 -52 16 -12 0
-42 12 -66 26 -43 25 -60 26 -107 8 -11 -4 -20 4 -32 29 -18 37 -44 47 -124
47 -40 0 -53 -7 -68 -36 -14 -26 -58 -39 -78 -23 -8 6 -14 22 -14 35 0 39 -18
37 -59 -5 -32 -32 -48 -41 -74 -41 -19 0 -40 -7 -47 -15 -10 -12 -8 -18 11
-34 l23 -18 -21 -12 c-12 -6 -47 -18 -78 -26 -32 -8 -64 -20 -71 -26 -17 -14
-18 -13 -31 26 -13 41 -34 42 -61 1 -23 -33 -23 -35 -7 -60 14 -21 15 -29 5
-41 -11 -13 -14 -13 -26 2 -12 17 -13 16 -23 -9 -12 -31 -2 -66 23 -87 25 -21
20 -27 -35 -50 -91 -38 -119 -26 -119 50 0 63 -28 84 -127 93 l-71 6 -19 -33
c-21 -35 -86 -63 -117 -51 -20 8 -21 20 -2 27 8 3 18 25 23 49 7 35 15 46 43
60 19 10 56 18 82 18 40 0 54 5 86 34 21 19 57 42 80 51 23 10 42 21 42 26 0
6 21 19 48 30 52 22 112 75 112 98 0 8 7 22 15 31 9 10 19 37 23 61 7 40 10
44 43 49 45 8 58 17 69 46 5 13 17 24 27 24 10 0 37 9 60 20 32 14 44 26 50
51 9 35 12 37 87 65 74 28 94 63 95 166 1 38 6 52 28 72 18 17 28 39 32 68 l6
43 62 -3 c52 -3 70 1 121 27 33 17 63 34 66 39 2 4 -6 29 -20 56 -13 26 -24
51 -24 56 0 15 43 24 97 21 43 -2 65 4 127 33 88 43 105 44 144 11 36 -30 96
-33 140 -8 29 16 32 16 66 0 20 -9 36 -23 36 -31 0 -19 47 -56 72 -56 10 0 30
8 45 17 18 12 46 17 96 16 61 0 72 -3 87 -23 17 -23 18 -23 24 -3 4 12 23 33
42 48 l35 27 -19 30 c-16 24 -18 38 -11 75 11 58 24 73 63 73 23 0 38 8 59 35
18 22 36 35 52 35 30 0 50 20 66 65 7 19 16 35 21 35 14 0 69 65 115 135 25
39 66 89 91 111 51 47 52 74 3 74 -25 0 -34 -8 -60 -55 -18 -31 -46 -64 -64
-75 -17 -10 -40 -26 -49 -35 -27 -27 -41 -9 -33 42 10 71 -4 173 -28 192 -11
9 -40 33 -64 54 -45 38 -78 46 -113 27 -31 -17 -64 29 -80 108 -7 37 -17 76
-23 86 -7 15 -5 22 8 33 17 12 17 14 2 31 -20 22 -21 32 -4 32 18 0 47 53 47
85 0 15 12 48 27 74 33 59 27 81 -21 81 -59 0 -158 63 -141 89 10 17 44 13 76
-10 16 -11 39 -19 52 -17 18 2 23 11 29 48 3 25 7 66 7 93 1 53 -6 57 -63 33
-66 -28 -77 37 -21 124 19 30 35 61 35 68 0 7 -14 30 -31 52 -30 37 -30 39
-15 68 9 17 16 43 16 57 0 32 21 74 50 100 21 19 23 19 52 2 16 -9 40 -17 52
-17 13 0 45 -11 71 -26 52 -27 61 -24 71 23 6 28 2 34 -30 55 -26 16 -36 30
-36 49 0 38 -53 115 -84 123 -22 5 -25 10 -17 24 6 11 6 24 0 33 -5 7 -9 31
-9 51 0 21 -6 42 -12 47 -60 48 -91 78 -109 103 -20 28 -20 30 -4 49 37 40 61
27 158 -85 31 -36 39 -40 94 -44 72 -5 123 10 168 49 37 32 93 59 126 59 12 0
19 5 17 13 -3 7 -35 16 -77 21 -63 8 -79 6 -124 -12 -103 -41 -107 -40 -192
27 -42 34 -80 61 -85 61 -5 0 -16 23 -25 52 -15 51 -15 52 10 78 14 14 25 31
25 37 0 7 15 13 33 15 28 3 32 7 35 36 2 18 9 32 17 32 7 0 39 14 70 30 31 17
63 30 69 30 7 0 21 9 31 20 17 19 17 20 -1 27 -10 4 -42 7 -71 8 -44 0 -56 -4
-82 -29 -29 -28 -31 -29 -56 -12 -39 25 -53 70 -47 144 5 69 19 85 54 63 22
-14 26 -12 42 21 6 13 20 25 31 27 36 6 47 54 22 101 -29 55 -28 59 14 105 40
43 41 46 29 75 -16 38 -36 49 -86 48 -21 -1 -49 2 -62 6 -19 6 -30 1 -58 -29
-18 -20 -34 -42 -34 -50 0 -14 -21 -25 -51 -25 -23 0 -24 17 -4 56 17 34 10
97 -12 115 -11 9 -19 7 -39 -12 l-25 -23 -40 40 -40 40 21 26 c11 14 20 31 20
37 0 29 -51 121 -80 143 l-34 26 11 101 c9 93 12 104 46 147 25 31 37 58 37
78 0 17 11 48 25 69 22 31 31 37 63 37 24 0 47 8 67 24 32 26 27 49 -5 28 -28
-17 -32 -15 -20 8 21 39 48 44 89 16 43 -30 58 -32 90 -10 24 17 24 15 5 106
-5 23 -2 29 17 37 17 6 31 4 46 -6 29 -19 48 -12 65 24 7 16 31 37 56 48 58
28 71 44 91 106 14 41 25 57 47 68 16 8 46 27 66 43 21 16 42 27 48 23 16 -10
60 25 80 64 10 20 29 47 43 59 35 33 51 75 39 99 -16 29 -2 153 17 161 23 8
31 23 31 57 0 39 34 93 65 105 14 5 28 17 32 26 5 14 9 13 24 -7 10 -13 23
-40 29 -59z m-696 -2379 c3 -5 -3 -11 -14 -14 -20 -5 -26 3 -13 16 9 10 21 9
27 -2z m1726 -65 c0 -3 -4 -8 -10 -11 -5 -3 -10 -1 -10 4 0 6 5 11 10 11 6 0
10 -2 10 -4z m-2838 -303 c-2 -12 7 -45 19 -73 19 -44 25 -51 43 -45 52 16 69
18 62 6 -5 -7 -18 -16 -31 -21 -13 -5 -29 -21 -37 -36 -9 -20 -30 -35 -73 -52
-33 -13 -68 -31 -77 -39 -23 -21 -46 -10 -53 24 -4 15 -11 38 -16 51 -5 13 -9
32 -9 43 0 10 -12 42 -26 69 -28 53 -25 70 10 70 12 0 26 4 32 9 9 10 77 19
129 17 25 -1 29 -5 27 -23z m757 -170 c24 -18 52 -33 62 -33 39 0 91 -35 109
-73 18 -37 18 -41 3 -64 -16 -24 -16 -26 2 -39 10 -8 29 -14 42 -14 28 0 63
-51 63 -92 0 -18 12 -36 38 -58 33 -28 35 -31 12 -26 -61 12 -117 27 -137 37
-12 7 -33 9 -47 5 -32 -8 -86 -80 -86 -115 -1 -14 -9 -44 -19 -65 -22 -46 -19
-59 21 -102 25 -27 27 -32 13 -44 -8 -7 -15 -17 -15 -23 0 -6 -12 -28 -26 -48
-24 -35 -25 -43 -19 -103 4 -37 11 -69 17 -72 5 -3 27 4 49 15 45 24 53 17 47
-41 -2 -25 -8 -34 -24 -36 -11 -2 -27 4 -34 13 -7 8 -20 15 -29 15 -27 0 -81
-39 -81 -58 0 -39 111 -112 170 -112 25 0 25 -5 -1 -41 -12 -17 -23 -49 -26
-72 -4 -29 -14 -49 -32 -64 -21 -17 -26 -30 -27 -70 -1 -26 2 -55 7 -64 4 -9
10 -31 13 -50 8 -61 26 -103 60 -143 34 -40 34 -40 75 -27 46 13 52 11 108
-40 28 -25 43 -49 48 -75 11 -55 12 -234 2 -234 -5 0 -22 -13 -37 -30 -15 -16
-49 -39 -75 -50 -56 -24 -55 -24 -55 -5 0 20 -37 38 -63 31 -12 -3 -31 -20
-42 -38 -11 -18 -33 -35 -48 -39 -42 -11 -58 -28 -51 -55 5 -21 3 -24 -20 -24
-15 0 -44 -9 -65 -20 -45 -22 -131 -21 -159 2 -28 24 -169 108 -180 108 -19 0
-42 44 -42 80 0 19 -9 50 -20 68 -22 35 -48 41 -90 19 -14 -7 -52 -19 -85 -25
-59 -13 -94 -23 -126 -36 -16 -7 -79 37 -79 55 0 5 37 9 83 9 52 0 90 5 101
13 16 12 13 16 -36 46 -34 22 -70 36 -101 39 -33 3 -51 10 -55 21 -3 9 -15 28
-28 43 -12 15 -24 32 -26 38 -2 7 -17 5 -43 -6 -26 -11 -65 -16 -112 -15 l-72
1 -21 -41 c-23 -45 -66 -69 -123 -69 -22 0 -39 -7 -48 -19 -12 -16 -22 -18
-64 -12 -59 7 -66 25 -12 29 21 2 41 10 44 17 2 8 21 17 41 21 94 17 96 45 4
43 -39 -1 -78 4 -92 11 -15 8 -43 10 -76 7 -58 -6 -79 7 -86 53 -3 24 0 25 44
25 25 0 48 2 50 5 27 32 48 72 43 80 -3 5 -19 10 -34 10 -16 0 -49 3 -75 6
-39 6 -46 10 -46 29 0 29 42 47 102 45 67 -3 68 -2 68 33 0 18 7 42 15 53 14
19 15 19 21 -3 7 -26 29 -30 38 -8 3 9 18 15 40 15 22 0 40 7 48 18 15 20 133
80 187 95 20 5 57 10 83 11 36 1 53 7 75 28 15 15 62 43 104 62 89 40 109 63
109 125 0 61 28 114 105 199 36 40 65 76 65 81 0 18 -14 19 -47 6 -20 -8 -37
-15 -39 -15 -2 0 -11 17 -21 38 -9 20 -19 40 -21 44 -1 3 5 9 16 12 21 7 62
74 62 103 0 11 -14 32 -31 49 -48 46 -51 56 -24 97 17 23 25 50 25 76 0 40 -1
41 -36 41 -19 0 -45 -5 -56 -11 -17 -9 -28 -8 -55 7 -32 17 -36 17 -63 1 -15
-9 -41 -17 -57 -17 -43 0 -55 -13 -64 -70 -12 -74 -21 -82 -66 -59 -21 11 -54
19 -73 19 -20 0 -39 3 -42 6 -4 3 4 22 18 42 55 86 49 82 120 82 65 0 66 0
110 46 24 26 58 76 76 113 22 44 42 70 61 79 15 7 27 20 27 28 0 26 105 64
176 64 51 0 64 3 64 15 0 22 46 38 109 37 29 -1 62 3 72 9 37 19 154 37 214
31 48 -4 69 -12 104 -39z m1392 -3033 c47 -26 -6 -79 -64 -64 -36 8 -34 29 3
46 17 7 30 16 30 20 0 11 8 10 31 -2z m131 -64 c54 -21 65 -43 44 -84 -40 -77
-131 -118 -157 -70 -15 28 -87 98 -100 98 -6 0 -7 5 -4 10 3 6 27 10 52 10 37
0 50 5 74 31 16 17 32 29 36 27 5 -1 29 -11 55 -22z m-612 -11 c11 -13 7 -15
-25 -15 -32 0 -36 2 -25 15 7 8 18 15 25 15 7 0 18 -7 25 -15z"/>
<path d="M5655 10001 c-6 -10 32 -41 51 -41 16 0 45 -35 69 -83 21 -41 68 -74
114 -79 34 -4 36 13 4 42 -14 14 -58 58 -97 98 -59 59 -77 72 -103 72 -18 0
-34 -4 -38 -9z"/>
<path d="M5803 8992 c-21 -21 -49 -57 -63 -81 -14 -23 -45 -70 -70 -104 -90
-121 -101 -140 -96 -154 3 -8 10 -13 15 -11 5 2 55 42 110 90 78 68 109 103
142 160 23 40 48 80 56 89 20 24 6 49 -28 49 -20 0 -40 -11 -66 -38z m57 2 c0
-6 -37 -71 -85 -149 -24 -38 -93 -100 -102 -91 -4 3 5 19 19 34 14 15 38 51
52 79 14 29 37 60 51 69 14 9 25 22 25 28 0 7 5 17 12 24 13 13 28 16 28 6z"/>
<path d="M5853 8435 c-17 -7 -39 -27 -47 -43 -9 -17 -34 -51 -56 -77 -52 -60
-52 -75 0 -75 33 0 42 5 54 28 8 15 29 41 46 57 31 29 70 93 70 115 0 14 -29
12 -67 -5z m7 -43 c0 -12 -30 -52 -40 -52 -5 0 -1 13 8 30 16 28 32 39 32 22z"/>
<path d="M5979 8067 c-45 -9 -47 -12 -53 -49 -6 -37 -10 -41 -71 -68 -36 -16
-65 -34 -65 -40 0 -23 35 -22 86 3 30 15 66 27 80 27 17 0 39 13 63 38 27 29
49 42 88 50 29 6 59 9 67 6 19 -7 29 11 13 24 -18 14 -154 20 -208 9z m29 -56
c-27 -34 -36 -37 -45 -15 -7 19 21 44 50 44 17 0 17 -2 -5 -29z"/>
<path d="M4576 10440 c-32 -33 -78 -68 -101 -79 -22 -10 -47 -27 -55 -36 -23
-28 -67 -45 -99 -39 -26 5 -36 1 -61 -26 -33 -35 -38 -61 -15 -80 22 -18 18
-37 -7 -44 -35 -9 -37 -8 -51 27 -8 17 -24 41 -36 52 -22 19 -22 19 -49 -8
-15 -15 -39 -37 -54 -48 -30 -22 -35 -48 -16 -79 10 -16 9 -23 -7 -40 -20 -22
-20 -22 8 -46 16 -13 39 -24 53 -24 13 0 24 -4 24 -9 0 -11 -25 -21 -51 -21
-28 0 -23 -26 11 -52 16 -12 33 -31 36 -42 4 -12 13 -29 22 -38 14 -16 13 -18
-6 -18 -11 0 -39 -16 -62 -35 -23 -19 -49 -35 -57 -35 -13 0 -15 -9 -10 -46 4
-39 12 -53 47 -85 23 -22 46 -39 50 -39 29 0 101 46 134 86 39 46 39 46 22 75
-15 26 -16 29 -1 29 9 0 26 -7 39 -15 30 -20 51 -11 67 27 11 26 16 29 43 24
42 -7 101 15 100 36 -1 10 7 20 17 23 10 3 30 20 44 36 31 38 33 86 4 123 -17
21 -18 26 -5 26 9 0 21 9 28 20 8 12 24 20 39 20 20 0 30 7 39 29 6 16 22 39
36 52 34 32 31 49 -9 49 -23 0 -41 -8 -57 -25 -12 -13 -27 -22 -32 -19 -5 3
13 27 40 52 l49 47 6 85 c3 47 2 89 -4 95 -5 5 -9 21 -9 36 0 24 -16 40 -38
39 -4 -1 -34 -27 -66 -60z m82 -22 c6 -8 7 -44 3 -92 -7 -78 -7 -79 -54 -122
-26 -23 -47 -46 -47 -52 0 -20 36 -41 59 -35 34 9 18 -13 -22 -32 -18 -7 -45
-26 -61 -40 -26 -24 -27 -27 -13 -43 20 -22 31 -66 23 -96 -7 -29 -36 -40 -90
-37 -41 3 -42 0 -21 -52 7 -16 2 -17 -49 -11 -56 7 -56 7 -67 -24 -11 -31 -11
-31 -39 -17 -17 9 -41 12 -58 9 -27 -6 -33 -2 -58 37 -15 24 -35 56 -46 71
-24 36 -23 38 11 38 17 0 32 4 35 9 11 17 -43 69 -79 75 -35 7 -44 19 -24 31
7 5 8 25 4 55 -6 47 -6 47 24 53 22 5 31 12 31 27 0 32 18 23 40 -19 28 -57
43 -62 101 -38 27 12 49 24 49 28 0 4 -12 21 -26 39 -25 30 -26 31 -9 50 13
14 31 20 61 20 33 0 51 7 76 29 18 15 47 35 63 44 17 8 48 32 69 52 62 57 93
68 114 43z m-454 -697 l28 -29 -38 -46 c-46 -56 -78 -65 -127 -36 -64 38 -57
87 16 121 59 26 88 24 121 -10z"/>
<path d="M3882 9578 c-5 -7 -12 -24 -14 -38 -4 -33 -34 -37 -64 -9 -19 18 -26
20 -39 9 -13 -11 -19 -10 -35 5 -19 17 -20 17 -26 -1 -3 -11 -13 -36 -21 -57
-16 -36 -15 -38 7 -62 13 -14 39 -28 59 -31 50 -10 67 -44 22 -44 -13 0 -21
-10 -25 -31 -12 -60 -7 -86 24 -119 24 -26 35 -31 67 -28 l38 3 0 60 c0 59 -1
60 -33 70 -40 11 -42 25 -3 25 36 0 55 22 47 55 -9 35 3 31 15 -5 6 -16 15
-30 20 -30 4 0 24 14 44 31 34 30 35 33 20 55 -19 29 -19 34 0 34 22 0 18 13
-10 40 -19 18 -22 27 -14 41 8 16 5 21 -16 29 -35 13 -50 13 -63 -2z m49 -67
c12 -21 14 -32 6 -40 -7 -7 -5 -16 7 -30 10 -11 15 -25 11 -31 -5 -8 -12 -5
-22 9 -10 14 -25 21 -49 21 -39 0 -54 -21 -36 -50 11 -18 7 -30 -10 -30 -4 0
-8 9 -8 20 0 29 -40 62 -68 55 -28 -7 -52 10 -52 36 0 22 36 35 55 19 8 -6 19
-9 25 -5 6 4 17 2 25 -5 7 -6 29 -10 47 -8 29 3 33 7 36 36 4 40 12 40 33 3z
m-119 -228 c18 -21 29 -71 17 -78 -4 -3 -19 5 -33 17 -19 18 -24 29 -19 51 6
31 14 34 35 10z"/>
<path d="M4456 9518 c-3 -24 -3 -89 2 -146 4 -62 4 -106 -2 -109 -11 -7 -36
25 -36 46 -1 9 -16 34 -34 55 l-34 40 -41 -14 c-23 -7 -41 -15 -41 -17 0 -2 7
-20 15 -40 21 -50 20 -53 -24 -53 -34 0 -40 -4 -51 -31 -21 -50 -16 -86 16
-120 45 -47 58 -52 88 -28 40 32 56 19 56 -45 0 -44 5 -60 27 -86 14 -18 29
-48 32 -68 5 -30 14 -40 61 -68 30 -18 58 -30 63 -27 8 5 69 -43 123 -98 35
-35 68 -34 85 5 6 12 23 28 37 34 125 58 167 135 106 196 -31 30 -53 32 -95
11 -41 -22 -52 -11 -44 41 7 47 7 47 -46 58 -14 3 -41 21 -60 39 -19 19 -40
36 -47 38 -9 3 -9 35 -1 143 11 132 11 140 -7 153 -11 8 -29 39 -40 71 -21 55
-23 57 -62 60 l-41 3 -5 -43z m66 -5 c9 -10 19 -29 23 -43 4 -14 16 -40 27
-57 17 -29 19 -44 13 -125 -4 -51 -13 -103 -21 -115 -21 -33 -18 -41 28 -64
39 -20 41 -22 23 -35 -10 -8 -24 -14 -31 -14 -17 0 -29 -39 -16 -52 6 -6 23
-5 48 2 22 6 57 10 79 8 l40 -3 -3 -41 c-3 -60 16 -73 74 -51 58 21 94 10 94
-31 0 -34 -68 -106 -117 -122 -17 -7 -39 -23 -48 -36 l-16 -25 -77 69 c-42 38
-83 67 -90 64 -8 -2 -27 5 -43 17 -15 11 -33 21 -39 21 -5 0 -10 17 -10 37 0
29 -7 42 -31 62 -33 28 -32 61 1 61 32 0 33 20 1 49 -17 16 -31 33 -31 39 0
19 -60 19 -91 0 -30 -18 -30 -18 -54 6 -30 30 -41 71 -25 91 15 18 30 10 30
-16 0 -11 7 -19 18 -19 9 0 28 -3 40 -7 21 -5 23 -3 21 18 -1 13 1 34 5 46 4
14 1 33 -8 52 -19 37 -21 71 -3 71 25 0 56 -44 59 -85 l3 -40 54 -8 c62 -10
84 1 59 30 -11 13 -17 51 -22 134 -7 132 0 153 36 112z"/>
<path d="M3691 9116 c-40 -84 -45 -177 -13 -247 21 -45 23 -46 78 -53 68 -8
80 -2 60 29 -13 20 -13 24 -1 29 24 9 20 98 -5 121 -27 24 -25 35 5 35 17 0
25 6 26 18 0 9 2 28 3 40 2 19 -6 28 -43 45 -25 12 -50 28 -54 35 -14 22 -25
13 -56 -52z m103 -12 c28 -28 20 -44 -24 -44 -22 0 -40 -4 -40 -9 0 -6 18 -31
40 -56 22 -25 40 -50 40 -55 0 -5 -12 -17 -26 -26 -19 -13 -24 -24 -21 -41 4
-20 1 -24 -16 -21 -36 5 -61 62 -59 134 3 106 58 167 106 118z"/>
<path d="M3637 8812 c-25 -27 -28 -146 -4 -169 15 -16 19 -16 27 -3 5 8 10 27
10 43 0 17 5 27 14 27 25 0 28 19 7 46 -12 15 -21 37 -21 50 0 29 -11 30 -33
6z"/>
<path d="M4415 8718 c-41 -125 -40 -137 12 -168 42 -24 40 -24 46 0 4 15 14
20 37 20 22 0 31 4 27 13 -55 139 -60 147 -89 147 -16 0 -30 -6 -33 -12z m64
-73 c14 -35 13 -39 -4 -51 -22 -16 -34 -17 -54 -5 -12 8 -11 16 5 55 10 25 23
44 29 43 5 -2 16 -21 24 -42z"/>
<path d="M4307 8315 c-12 -25 -30 -41 -60 -54 -44 -19 -74 -59 -64 -85 5 -12
21 -16 70 -16 64 0 87 11 87 41 0 9 9 28 20 42 25 32 25 57 0 85 -28 29 -33
28 -53 -13z m43 -22 c0 -14 -19 -38 -25 -32 -8 8 5 39 16 39 5 0 9 -3 9 -7z
m-45 -78 c0 -16 -8 -21 -42 -23 -49 -4 -52 2 -20 29 28 24 62 21 62 -6z"/>
<path d="M4084 8146 c-17 -6 -39 -18 -48 -25 -10 -8 -36 -17 -59 -20 -39 -6
-42 -8 -45 -41 -4 -44 17 -60 77 -60 39 0 52 6 86 36 22 20 39 40 37 46 -1 6
5 16 14 23 35 25 -14 57 -62 41z m6 -51 c6 -8 9 -18 6 -24 -9 -13 -88 -38
-109 -33 -26 5 -15 26 15 30 14 2 34 12 44 23 21 23 28 24 44 4z"/>
<path d="M4496 7651 c-3 -5 -17 -12 -30 -15 -14 -3 -41 -16 -60 -29 -28 -17
-34 -27 -30 -42 4 -11 9 -44 11 -72 4 -46 8 -53 27 -53 40 0 66 27 66 71 0 32
4 41 24 49 16 6 25 19 28 39 6 43 -19 80 -36 52z m4 -38 c0 -4 -10 -17 -22
-30 -11 -12 -24 -39 -27 -59 -8 -50 -31 -57 -32 -10 -1 20 -2 41 -3 48 -1 7
14 23 33 35 34 23 51 29 51 16z"/>
<path d="M4732 7569 c-51 -25 -92 -53 -107 -73 -26 -34 -33 -70 -15 -81 25
-15 8 -26 -30 -20 -37 6 -41 5 -50 -20 -16 -42 -12 -77 15 -120 13 -22 29 -50
34 -62 6 -13 19 -23 29 -23 29 0 62 29 62 56 0 30 46 120 66 128 8 3 14 14 14
24 0 10 18 53 40 95 36 68 52 137 33 137 -5 0 -45 -19 -91 -41z m58 -23 c0
-23 -81 -166 -93 -166 -15 0 -61 -125 -52 -140 10 -16 -23 -24 -49 -12 -15 7
-27 24 -34 51 -15 61 -7 81 33 81 21 0 45 9 64 26 33 27 33 44 1 44 -55 0 -22
58 54 97 70 37 76 38 76 19z"/>
<path d="M4405 7359 c-37 -30 -51 -37 -61 -28 -10 8 -25 6 -59 -11 -38 -18
-45 -26 -45 -50 0 -16 -4 -31 -9 -35 -6 -3 -24 -27 -42 -52 l-31 -47 28 -23
c16 -13 37 -23 46 -23 26 0 68 22 68 36 0 17 33 74 43 74 4 0 5 -10 3 -22 -15
-72 -16 -101 -5 -114 9 -12 6 -14 -20 -14 -29 0 -31 -2 -25 -27 22 -94 63 -95
172 -4 78 65 97 100 82 146 -6 18 -17 36 -25 39 -8 3 -15 12 -15 20 0 7 -9 33
-20 57 -11 24 -20 58 -20 76 0 17 -4 34 -8 37 -5 3 -30 -13 -57 -35z m53 -79
c13 -25 21 -55 19 -68 -3 -16 4 -28 24 -43 l29 -20 -20 -39 c-21 -41 -74 -90
-124 -114 -40 -20 -57 -4 -29 26 17 20 19 33 15 91 -3 44 0 72 8 82 8 9 9 28
5 55 -5 32 -3 46 11 61 24 26 35 21 62 -31z m-115 7 c6 -16 -71 -145 -96 -161
-12 -8 -20 -7 -31 4 -13 13 -11 20 14 55 17 22 33 47 36 55 7 16 55 60 65 60
4 0 9 -6 12 -13z"/>
<path d="M5067 7061 c-8 -9 -29 -44 -48 -78 -32 -58 -33 -62 -17 -80 10 -11
18 -40 20 -73 3 -51 6 -56 44 -83 l41 -29 66 31 c37 16 67 36 67 44 0 7 -13
26 -30 42 -28 27 -29 30 -13 47 14 16 15 23 4 54 -7 19 -10 47 -6 63 8 39 -19
68 -72 74 -31 4 -45 1 -56 -12z m83 -21 c16 -9 18 -20 15 -99 -4 -78 -2 -91
15 -106 30 -27 25 -38 -27 -62 -42 -19 -50 -20 -64 -7 -8 8 -21 14 -28 14 -10
0 -12 11 -7 43 5 35 3 48 -14 69 -11 15 -20 29 -20 32 0 3 16 30 35 60 42 65
59 75 95 56z"/>
<path d="M4185 6610 c-19 -13 -47 -20 -77 -20 -40 0 -50 -4 -68 -30 -20 -29
-23 -29 -83 -23 -34 3 -74 12 -89 20 -27 13 -29 12 -59 -29 -17 -24 -33 -55
-36 -70 -5 -27 -8 -28 -68 -28 -44 0 -66 -5 -75 -15 -12 -14 -15 -14 -30 0
-21 19 -36 19 -44 0 -3 -9 -18 -15 -35 -15 -35 0 -81 -49 -81 -86 0 -13 -13
-43 -30 -66 -16 -22 -30 -51 -30 -64 0 -13 -4 -26 -10 -29 -5 -3 -10 -19 -10
-34 0 -41 -22 -64 -64 -67 -20 -2 -44 -7 -53 -13 -12 -6 -24 -3 -43 11 -32 23
-67 17 -105 -18 -34 -32 -32 -45 15 -83 34 -27 39 -35 30 -51 -6 -11 -28 -29
-49 -39 -38 -20 -38 -20 -58 1 l-20 20 -42 -26 c-22 -14 -47 -26 -56 -26 -33
0 -55 -38 -55 -96 0 -51 3 -58 38 -90 20 -19 54 -44 75 -55 20 -11 37 -23 38
-27 0 -4 3 -18 6 -32 2 -14 7 -49 10 -77 4 -43 8 -53 24 -53 10 0 34 -14 53
-31 66 -57 194 -91 247 -65 41 20 38 21 51 -14 14 -42 40 -54 77 -36 31 16 41
34 41 72 0 17 8 27 25 34 22 8 25 15 25 58 0 41 5 53 34 83 41 41 90 79 104
79 23 0 52 -53 52 -95 0 -37 7 -51 52 -104 54 -65 58 -67 89 -50 23 12 59 3
59 -15 0 -7 -9 -21 -19 -30 -30 -27 -36 -70 -15 -105 22 -37 52 -51 109 -51
34 0 47 5 55 20 6 11 29 29 51 40 35 19 44 19 77 8 20 -6 46 -20 57 -29 33
-29 116 -69 142 -69 19 0 32 14 61 61 20 34 47 76 60 95 12 19 22 41 22 49 0
12 17 15 81 15 l81 0 48 48 c26 26 60 55 74 65 14 10 26 25 26 33 0 8 6 25 14
37 9 12 16 53 18 94 2 72 2 73 -35 107 -36 33 -48 68 -27 81 6 3 10 19 10 35
0 26 -4 29 -45 35 -51 8 -112 1 -182 -20 -37 -12 -30 29 10 54 100 65 105 70
106 122 2 46 -25 79 -95 121 -38 22 -77 47 -86 55 -21 19 -24 74 -6 103 11 18
8 24 -29 58 -39 36 -41 41 -36 79 10 76 -38 162 -75 135 -34 -24 -43 -24 -63
2 -43 55 -118 76 -164 46z m106 -38 c14 -9 37 -30 51 -46 l25 -30 28 22 c32
26 58 15 35 -14 -12 -14 -11 -18 8 -33 20 -15 22 -23 16 -67 -6 -50 -5 -51 30
-72 34 -20 35 -21 29 -75 -3 -29 -1 -62 5 -73 5 -10 46 -41 90 -67 67 -39 83
-54 92 -83 12 -34 10 -38 -21 -71 -19 -19 -47 -42 -64 -50 -39 -21 -54 -42
-55 -74 0 -44 20 -52 86 -32 57 17 158 23 170 10 3 -3 -1 -15 -9 -27 -13 -19
-14 -26 0 -58 8 -21 26 -47 40 -58 24 -20 25 -25 18 -88 -4 -36 -11 -69 -16
-72 -5 -3 -9 -16 -9 -30 0 -13 -4 -24 -10 -24 -12 0 -24 64 -17 98 7 35 -42
150 -75 173 -32 24 -74 33 -83 19 -4 -6 4 -25 17 -43 41 -54 52 -92 38 -127
-7 -16 -23 -36 -36 -45 -28 -18 -32 -45 -7 -45 15 0 103 -46 103 -55 0 -16
-45 -75 -61 -80 -10 -4 -55 -3 -99 1 l-79 6 -6 -28 c-3 -16 -15 -47 -27 -69
-12 -22 -30 -57 -41 -78 -30 -57 -48 -63 -105 -30 -26 15 -65 42 -88 60 -23
18 -49 33 -58 33 -23 0 -94 -37 -130 -67 -24 -20 -37 -24 -65 -19 -65 10 -92
70 -46 100 29 19 34 66 9 87 -9 7 -38 12 -65 12 -45 -1 -51 2 -84 42 -29 37
-35 51 -35 92 0 44 -4 53 -40 88 l-39 38 -47 -36 c-26 -21 -53 -37 -60 -37
-21 0 -53 -54 -60 -101 -4 -26 -17 -55 -32 -71 -16 -17 -22 -33 -18 -44 4 -11
-1 -26 -15 -40 -23 -25 -39 -23 -39 4 0 9 -10 27 -23 41 -13 15 -29 45 -36 69
-7 24 -25 57 -40 74 -30 34 -59 34 -100 1 l-22 -18 50 -39 c46 -37 78 -82 66
-94 -12 -13 -70 -11 -103 4 -81 34 -104 49 -113 70 -4 13 -18 24 -31 26 -19 2
-24 11 -31 48 -18 108 -13 98 -69 135 -66 44 -97 84 -98 126 0 42 13 56 61 65
19 4 39 13 46 21 6 8 17 12 23 8 20 -13 5 -38 -29 -50 -55 -18 -49 -33 16 -40
84 -10 86 -11 124 -61 46 -62 169 -120 169 -80 0 32 -21 68 -49 84 -25 14 -29
22 -28 55 2 38 -1 42 -42 64 -2 1 6 15 18 32 20 28 21 33 7 65 -9 22 -30 43
-60 61 -25 15 -46 28 -46 30 0 2 7 11 16 19 23 23 64 20 106 -9 37 -25 37 -25
48 -5 6 11 20 20 31 20 36 0 78 29 84 58 3 15 13 49 21 76 7 26 14 53 14 58 0
6 11 19 25 30 18 14 25 29 25 56 0 49 10 62 55 72 31 7 41 5 50 -7 10 -13 16
-12 51 12 30 20 49 26 84 24 69 -3 69 -2 91 49 25 58 48 85 63 73 14 -10 152
-22 172 -14 9 3 20 16 25 29 8 22 15 24 69 24 45 0 62 4 66 15 8 21 63 19 95
-3z m-1136 -777 c18 -17 25 -35 25 -63 0 -36 3 -40 40 -57 36 -16 53 -35 31
-35 -31 0 -75 29 -115 75 -27 32 -55 55 -67 55 -27 0 -23 17 9 34 38 21 49 20
77 -9z m1602 -147 c18 -43 37 -188 26 -188 -2 0 -11 8 -22 19 -10 10 -27 24
-37 29 -16 9 -17 14 -6 29 39 56 39 59 5 151 -3 6 -1 12 4 12 5 0 19 -24 30
-52z m-1430 -190 c22 -21 31 -48 16 -48 -16 1 -53 39 -53 54 0 22 9 20 37 -6z"/>
<path d="M4107 5990 c-31 -25 -33 -41 -10 -80 15 -27 15 -29 -6 -57 -42 -54
-71 -104 -66 -114 4 -5 16 -9 28 -9 12 0 44 -16 71 -35 64 -45 106 -47 136 -5
14 20 19 37 15 51 -4 12 -2 31 3 43 6 11 13 42 17 67 4 35 11 48 25 52 11 3
20 9 20 14 0 20 -53 58 -98 71 -87 25 -105 25 -135 2z m99 -25 c10 -8 34 -15
52 -15 32 0 42 -16 23 -35 -5 -6 -11 -28 -13 -49 -3 -35 -10 -45 -46 -63 -2 0
4 -16 13 -33 14 -27 15 -37 4 -56 -7 -13 -19 -24 -26 -24 -27 0 -78 28 -106
58 -33 34 -32 38 27 112 37 46 35 70 -5 70 -24 0 -25 26 -1 39 25 15 55 13 78
-4z"/>
<path d="M5559 5479 c-26 -21 -55 -51 -64 -66 -9 -15 -35 -41 -57 -58 -22 -16
-53 -50 -70 -74 -26 -38 -27 -45 -14 -53 22 -13 20 -61 -4 -83 -27 -24 -25
-44 5 -55 38 -15 87 0 120 35 17 18 61 45 98 60 38 15 70 33 71 39 2 6 9 28
15 48 7 21 14 82 17 137 l4 99 -36 4 c-31 4 -45 -2 -85 -33z m89 -22 c2 -10
-4 -20 -15 -24 -10 -3 -26 -13 -36 -21 -17 -15 -16 -17 14 -44 25 -23 30 -34
25 -56 -11 -44 -39 -76 -93 -102 -28 -14 -65 -37 -82 -52 -48 -41 -62 -37 -55
16 4 27 2 46 -5 50 -21 13 -11 34 42 88 28 30 69 72 89 94 61 65 72 73 93 71
11 -1 21 -10 23 -20z"/>
</g>
</svg>
