<?xml version="1.0" encoding="UTF-8" standalone="no"?>
<svg
   xmlns:dc="http://purl.org/dc/elements/1.1/"
   xmlns:cc="http://creativecommons.org/ns#"
   xmlns:rdf="http://www.w3.org/1999/02/22-rdf-syntax-ns#"
   xmlns:svg="http://www.w3.org/2000/svg"
   xmlns="http://www.w3.org/2000/svg"
   viewBox="0 0 960 540"
   height="540"
   width="960"
   xml:space="preserve"
   id="svg2"
   version="1.1"><metadata
     id="metadata8"><rdf:RDF><cc:Work
         rdf:about=""><dc:format>image/svg+xml</dc:format><dc:type
           rdf:resource="http://purl.org/dc/dcmitype/StillImage" /></cc:Work></rdf:RDF></metadata><defs
     id="defs6"><clipPath
       id="clipPath20"
       clipPathUnits="userSpaceOnUse"><path
         id="path18"
         d="M 0,0 H 365760 V 205740 H 0 Z" /></clipPath></defs><g
     transform="matrix(1.3333333,0,0,-1.3333333,0,540)"
     id="g10"><g
       transform="matrix(1,0,0,-1,0,405)"
       id="g12"><g
         transform="scale(0.0019685)"
         id="g14"><g
           clip-path="url(#clipPath20)"
           id="g16"><g
             id="g22"><g
               id="g24"><path
                 id="path26"
                 style="fill:#ffffff;fill-opacity:1;fill-rule:evenodd;stroke:none"
                 d="M 0,0 H 365760 V 205740 H 0 Z" /></g></g><g
             id="g28"><g
               id="g30"><path
                 id="path32"
                 style="fill:#000000;fill-opacity:1;fill-rule:evenodd;stroke:none"
                 d="M 2,0 H 365762 V 205740 H 2 Z" /></g><path
               id="path34"
               style="fill:none;stroke:#595959;stroke-width:381;stroke-linecap:butt;stroke-linejoin:round;stroke-miterlimit:8;stroke-dasharray:none;stroke-opacity:1"
               d="M 2,0 H 365762 V 205740 H 2 Z" /></g><g
             id="g36"><g
               id="g38"><g
                 id="g40"><path
                   id="path42"
                   style="fill:#000000;fill-opacity:0;fill-rule:evenodd;stroke:none"
                   d="m 8004.364,102767.73 349752.016,204" /></g></g><path
               id="path44"
               style="fill:none;stroke:#434343;stroke-width:381;stroke-linecap:butt;stroke-linejoin:round;stroke-miterlimit:8;stroke-dasharray:none;stroke-opacity:1"
               d="m 8004.364,102767.73 349752.016,204" /></g><g
             id="g46"><g
               id="g48"><path
                 id="path50"
                 style="fill:#a4c2f4;fill-opacity:1;fill-rule:evenodd;stroke:none"
                 d="m 40608.01,102048.41 v -20256.746 0 c 0,-8701.384 7053.87,-15755.25 15755.25,-15755.25 h 12049.506 v 0 c 4178.544,0 8185.964,1659.922 11140.644,4614.606 2954.676,2954.68 4614.606,6962.1 4614.606,11140.644 v 13421.672 0 l -4191.796,6835.074 -4191.8,-6835.074 v 0 -13421.672 c 0,-4071.25 -3300.404,-7371.654 -7371.654,-7371.654 H 56363.26 v 0 c -4071.252,0 -7371.655,3300.404 -7371.655,7371.654 v 20256.746 z" /></g></g><g
             id="g52"><g
               id="g54"><path
                 id="path56"
                 style="fill:#6d9eeb;fill-opacity:1;fill-rule:evenodd;stroke:none"
                 d="m 75741.766,103691.96 v 20256.75 0 c 0,8701.39 7053.864,15755.24 15755.25,15755.24 h 12049.504 v 0 c 4178.55,0 8185.96,-1659.92 11140.64,-4614.59 2954.68,-2954.69 4614.61,-6962.1 4614.61,-11140.65 v -13421.67 0 l -4232.86,-6835.08 -4232.84,6835.08 v 0 13421.67 c 0,4025.91 -3263.65,7289.54 -7289.55,7289.54 H 91497.016 v 0 c -4025.906,0 -7289.546,-3263.63 -7289.546,-7289.54 v -20256.75 z" /></g></g><g
             id="g58"><g
               id="g60"><path
                 id="path62"
                 style="fill:#f6b26b;fill-opacity:1;fill-rule:evenodd;stroke:none"
                 d="m 110714.03,102048 v -44554.5 0 c 0,-11081.87 8983.63,-20065.5 20065.5,-20065.5 h 5733 v 0 c 5321.7,0 10425.44,2114.04 14188.45,5877.05 3763.02,3763.01 5877.05,8866.747 5877.05,14188.45 v 35849.516 0 l -4354.78,8704.984 -4354.78,-8704.984 v 0 V 57493.5 c 0,-6271.703 -5084.24,-11355.926 -11355.94,-11355.926 h -5733 v 0 c -6271.7,0 -11355.92,5084.223 -11355.92,11355.926 V 102048 Z" /></g></g><g
             id="g64"><g
               id="g66"><path
                 id="path68"
                 style="fill:#93c47d;fill-opacity:1;fill-rule:evenodd;stroke:none"
                 d="m 148303.89,103691.52 v 29614.5 0 c 0,9597.32 7780.17,17377.5 17377.5,17377.5 h 4965 v 0 c 4608.81,0 9028.84,-1830.85 12287.75,-5089.75 3258.92,-3258.93 5089.75,-7678.96 5089.75,-12287.75 v -22075.65 0 l -3771.41,-7538.85 -3771.42,7538.85 v 0 22075.65 c 0,5431.53 -4403.12,9834.67 -9834.67,9834.67 h -4965 v 0 c -5431.53,0 -9834.67,-4403.14 -9834.67,-9834.67 v -29614.5 z" /></g></g><g
             id="g70"><g
               id="g72"><path
                 id="path74"
                 style="fill:#6aa84f;fill-opacity:1;fill-rule:evenodd;stroke:none"
                 d="m 180653.1,102047.85 v -29614.5 0 c 0,-9597.327 7780.17,-17377.5 17377.5,-17377.5 h 4965 v 0 c 4608.79,0 9028.82,1830.838 12287.74,5089.75 3258.91,3258.916 5089.76,7678.95 5089.76,12287.75 v 22075.64 0 l -3771.43,7538.86 -3771.4,-7538.86 v 0 -22075.64 c 0,-5431.54 -4403.15,-9834.67 -9834.67,-9834.67 h -4965 v 0 c -5431.55,0 -9834.68,4403.13 -9834.68,9834.67 v 29614.5 z" /></g></g><g
             id="g76"><g
               id="g78"><path
                 id="path80"
                 style="fill:#ffe599;fill-opacity:1;fill-rule:evenodd;stroke:none"
                 d="m 212897.98,103698 v 43362.75 0 c 0,10069.95 8163.32,18233.25 18233.25,18233.25 h 5208.88 v 0 c 4835.77,0 9473.45,-1921 12892.86,-5340.39 3419.39,-3419.41 5340.39,-8057.09 5340.39,-12892.86 V 111608.1 h 0.62 L 250939,103698 l -3634.97,7910.1 h 0.63 v 35452.65 c 0,6055.55 -4909,10964.53 -10964.55,10964.53 h -5208.88 v 0 c -6055.54,0 -10964.53,-4908.98 -10964.53,-10964.53 V 103698 Z" /></g></g><g
             id="g82"><g
               id="g84"><path
                 id="path86"
                 style="fill:#45818e;fill-opacity:1;fill-rule:evenodd;stroke:none"
                 d="m 246177.34,102042.24 v -20256.75 0 c 0,-8701.38 7053.86,-15755.25 15755.26,-15755.25 h 14353.5 v 0 c 4178.56,0 8185.96,1659.93 11140.65,4614.61 2954.65,2954.68 4614.59,6962.095 4614.59,11140.64 v 13421.674 0 l -4505.81,6835.076 -4505.83,-6835.076 v 0 -13421.674 0 c 0,-3724.39 -3019.2,-6743.6 -6743.6,-6743.6 h -14353.5 v 0 c -3724.4,0 -6743.62,3019.21 -6743.62,6743.6 v 20256.75 z" /></g></g><g
             id="g88"><g
               id="g90"><path
                 id="path92"
                 style="fill:#76a5af;fill-opacity:1;fill-rule:evenodd;stroke:none"
                 d="m 283078.94,103697.96 v 20256.75 0 c 0,8701.39 7053.86,15755.24 15755.26,15755.24 h 14353.5 v 0 c 4178.55,0 8185.96,-1659.92 11140.64,-4614.59 2954.69,-2954.69 4614.6,-6962.1 4614.6,-11140.65 v -13421.67 0 l -4505.82,-6835.08 -4505.82,6835.08 v 0 13421.67 0 c 0,3724.39 -3019.2,6743.6 -6743.6,6743.6 h -14353.5 v 0 c -3724.4,0 -6743.6,-3019.21 -6743.6,-6743.6 v -20256.75 z" /></g></g><g
             id="g94"><g
               id="g96"><g
                 id="g98"><path
                   id="path100"
                   style="fill:#000000;fill-opacity:0;fill-rule:evenodd;stroke:none"
                   d="m 34800.09,43372.45 h 55176 v 24324 h -55176 z" /></g></g></g><g
             transform="scale(381)"
             id="g102"><g
               transform="translate(91.33882,113.83845)"
               id="g104"><g
                 id="g106"><text
                   id="text110"
                   style="font-variant:normal;font-weight:normal;font-size:17.33333397px;font-family:Lexend;-inkscape-font-specification:Lexend-Regular;writing-mode:lr-tb;fill:#a4c2f4;fill-opacity:1;fill-rule:nonzero;stroke:none"
                   transform="translate(18.120762,27.761261)"><tspan
                     id="tspan108"
                     y="0"
                     x="0 8.2853336 18.598667 25.254667 31.876001 42.536003 53.785336 64.272003 72.661339 77.480003 88.140007 98.453339 108.61067">Introduzione </tspan></text>
<text
                   id="text114"
                   style="font-variant:normal;font-weight:normal;font-size:17.33333397px;font-family:Lexend;-inkscape-font-specification:Lexend-Regular;writing-mode:lr-tb;fill:#a4c2f4;fill-opacity:1;fill-rule:nonzero;stroke:none"
                   transform="translate(33.222195,48.56126)"><tspan
                     id="tspan112"
                     y="0"
                     x="0 10.972 15.790668 20.644001 27.456001 34.077335 45.049335 51.705334 58.27467 69.246666 73.597336">ai frattali</tspan></text>
</g></g></g><g
             transform="scale(381)"
             id="g116" /><g
             id="g118"><g
               id="g120"><g
                 id="g122"><path
                   id="path124"
                   style="fill:#000000;fill-opacity:0;fill-rule:evenodd;stroke:none"
                   d="m 69934.09,137191.42 h 55176 v 24324 h -55176 z" /></g></g></g><g
             transform="scale(381)"
             id="g126"><g
               transform="translate(183.55405,360.0825)"
               id="g128"><g
                 id="g130"><text
                   id="text134"
                   style="font-variant:normal;font-weight:normal;font-size:17.33333397px;font-family:Lexend;-inkscape-font-specification:Lexend-Regular;writing-mode:lr-tb;fill:#6d9eeb;fill-opacity:1;fill-rule:nonzero;stroke:none"
                   transform="translate(31.60197,27.761261)"><tspan
                     id="tspan132"
                     y="0"
                     x="0 10.816 17.385334 28.045334 35.030666 39.849335 50.821335 55.674667 66.664001 76.821335 81.639999">Storia dei </tspan></text>
<text
                   id="text138"
                   style="font-variant:normal;font-weight:normal;font-size:17.33333397px;font-family:Lexend;-inkscape-font-specification:Lexend-Regular;writing-mode:lr-tb;fill:#6d9eeb;fill-opacity:1;fill-rule:nonzero;stroke:none"
                   transform="translate(43.541035,48.56126)"><tspan
                     id="tspan136"
                     y="0"
                     x="0 6.8120003 13.433333 24.405334 31.061335 37.630669 48.602669 52.953335">frattali</tspan></text>
</g></g></g><g
             transform="scale(381)"
             id="g140" /><g
             id="g142"><g
               id="g144"><g
                 id="g146"><path
                   id="path148"
                   style="fill:#000000;fill-opacity:0;fill-rule:evenodd;stroke:none"
                   d="m 96349.86,14697.272 h 74592 v 24324.001 h -74592 z" /></g></g></g><g
             transform="scale(381)"
             id="g150"><g
               transform="translate(252.88676,38.57552)"
               id="g152"><g
                 id="g154"><text
                   id="text158"
                   style="font-variant:normal;font-weight:normal;font-size:17.33333397px;font-family:Lexend;-inkscape-font-specification:Lexend-Regular;writing-mode:lr-tb;fill:#f6b26b;fill-opacity:1;fill-rule:nonzero;stroke:none"
                   transform="translate(9.473572,27.761261)"><tspan
                     id="tspan156"
                     y="0"
                     x="0 12.965334 23.122667 34.753334 45.066669 49.885334 58.27467 63.093334 73.753334 84.066673 94.224007 99.077339 110.06667 114.88534 119.73867 135.70267 140.52133 148.82401 159.31067 165.93201 176.90401">Deﬁnizione di misura </tspan></text>
<text
                   id="text162"
                   style="font-variant:normal;font-weight:normal;font-size:17.33333397px;font-family:Lexend;-inkscape-font-specification:Lexend-Regular;writing-mode:lr-tb;fill:#f6b26b;fill-opacity:1;fill-rule:nonzero;stroke:none"
                   transform="translate(66.17082,48.56126)"><tspan
                     id="tspan160"
                     y="0"
                     x="0 10.157333 18.460001 25.029335 35.186668 42.172001 52.485336">esterna</tspan></text>
</g></g></g><g
             transform="scale(381)"
             id="g164" /><g
             id="g166"><g
               id="g168"><g
                 id="g170"><path
                   id="path172"
                   style="fill:#000000;fill-opacity:0;fill-rule:evenodd;stroke:none"
                   d="m 141416.1,148467.27 h 55176 v 24324 h -55176 z" /></g></g></g><g
             transform="scale(381)"
             id="g174"><g
               transform="translate(371.17084,389.6779)"
               id="g176"><g
                 id="g178"><text
                   id="text182"
                   style="font-variant:normal;font-weight:normal;font-size:17.33333397px;font-family:Lexend;-inkscape-font-specification:Lexend-Regular;writing-mode:lr-tb;fill:#93c47d;fill-opacity:1;fill-rule:nonzero;stroke:none"
                   transform="translate(34.0106,27.761261)"><tspan
                     id="tspan180"
                     y="0"
                     x="0 14.976001 19.794668 28.097334 38.584 45.205334 56.177334 61.03067 72.020004 76.838669">Misura di </tspan></text>
<text
                   id="text186"
                   style="font-variant:normal;font-weight:normal;font-size:17.33333397px;font-family:Lexend;-inkscape-font-specification:Lexend-Regular;writing-mode:lr-tb;fill:#93c47d;fill-opacity:1;fill-rule:nonzero;stroke:none"
                   transform="translate(29.903828,48.56126)"><tspan
                     id="tspan184"
                     y="0"
                     x="0 13.190667 23.989334 34.476002 42.778667 53.768002 64.428001 71.413338">Hausdorf</tspan></text>
</g></g></g><g
             transform="scale(381)"
             id="g188" /><g
             id="g190"><g
               id="g192"><g
                 id="g194"><path
                   id="path196"
                   style="fill:#000000;fill-opacity:0;fill-rule:evenodd;stroke:none"
                   d="m 172925.33,32949.215 h 55176 v 24324 h -55176 z" /></g></g></g><g
             transform="scale(381)"
             id="g198"><g
               transform="translate(453.87225,86.48087)"
               id="g200"><g
                 id="g202"><text
                   id="text206"
                   style="font-variant:normal;font-weight:normal;font-size:17.33333397px;font-family:Lexend;-inkscape-font-specification:Lexend-Regular;writing-mode:lr-tb;fill:#6aa84f;fill-opacity:1;fill-rule:nonzero;stroke:none"
                   transform="translate(12.861698,27.761261)"><tspan
                     id="tspan204"
                     y="0"
                     x="0 12.965334 17.784 33.748001 43.905334 54.21867 62.521336 67.340004 78 88.313339 98.470673 103.32401 114.31334 119.132">Dimensione di </tspan></text>
<text
                   id="text210"
                   style="font-variant:normal;font-weight:normal;font-size:17.33333397px;font-family:Lexend;-inkscape-font-specification:Lexend-Regular;writing-mode:lr-tb;fill:#6aa84f;fill-opacity:1;fill-rule:nonzero;stroke:none"
                   transform="translate(29.903828,48.56126)"><tspan
                     id="tspan208"
                     y="0"
                     x="0 13.190667 23.989334 34.476002 42.778667 53.768002 64.428001 71.413338">Hausdorf</tspan></text>
</g></g></g><g
             transform="scale(381)"
             id="g212" /><g
             id="g214"><g
               id="g216"><g
                 id="g218"><path
                   id="path220"
                   style="fill:#000000;fill-opacity:0;fill-rule:evenodd;stroke:none"
                   d="m 196440,163008 h 74592 v 24324 h -74592 z" /></g></g></g><g
             transform="scale(381)"
             id="g222"><g
               transform="translate(515.5906,427.84253)"
               id="g224"><g
                 id="g226"><text
                   id="text230"
                   style="font-variant:normal;font-weight:normal;font-size:17.33333397px;font-family:Lexend;-inkscape-font-specification:Lexend-Regular;writing-mode:lr-tb;fill:#ffe599;fill-opacity:1;fill-rule:nonzero;stroke:none"
                   transform="translate(77.04414,27.761261)"><tspan
                     id="tspan228"
                     y="0"
                     x="0 11.769334 22.741335 31.044001">Caso</tspan></text>
<text
                   id="text234"
                   style="font-variant:normal;font-weight:normal;font-size:17.33333397px;font-family:Lexend;-inkscape-font-specification:Lexend-Regular;writing-mode:lr-tb;fill:#ffe599;fill-opacity:1;fill-rule:nonzero;stroke:none"
                   transform="translate(24.948999,48.56126)"><tspan
                     id="tspan232"
                     y="0"
                     x="0 10.989334 15.808001 31.772001 41.929337 52.242668 60.545334 65.364006 76.024002 86.337334 96.494667 101.34801 106.16667 116.48 123.04934 133.20667 139.828">dimensione intera</tspan></text>
</g></g></g><g
             transform="scale(381)"
             id="g236" /><g
             id="g238"><g
               id="g240"><g
                 id="g242"><path
                   id="path244"
                   style="fill:#000000;fill-opacity:0;fill-rule:evenodd;stroke:none"
                   d="m 241521.1,43372 h 55176 v 24324 h -55176 z" /></g></g></g><g
             transform="scale(381)"
             id="g246"><g
               transform="translate(633.91364,113.83727)"
               id="g248"><g
                 id="g250"><text
                   id="text254"
                   style="font-variant:normal;font-weight:normal;font-size:17.33333397px;font-family:Lexend;-inkscape-font-specification:Lexend-Regular;writing-mode:lr-tb;fill:#45818e;fill-opacity:1;fill-rule:nonzero;stroke:none"
                   transform="translate(41.089054,27.761261)"><tspan
                     id="tspan252"
                     y="0"
                     x="0 8.2853336 18.598667 26.901335 31.720001 41.877335 57.841335 62.660004">Insiemi </tspan></text>
<text
                   id="text258"
                   style="font-variant:normal;font-weight:normal;font-size:17.33333397px;font-family:Lexend;-inkscape-font-specification:Lexend-Regular;writing-mode:lr-tb;fill:#45818e;fill-opacity:1;fill-rule:nonzero;stroke:none"
                   transform="translate(22.738743,48.56126)"><tspan
                     id="tspan256"
                     y="0"
                     x="0 10.798667 21.285334 27.854668 38.514668 46.817337 51.636002 67.600006 72.418671 76.596001 87.568001 94.553337">autosimilari</tspan></text>
</g></g></g><g
             transform="scale(381)"
             id="g260" /><g
             id="g262"><g
               id="g264"><g
                 id="g266"><path
                   id="path268"
                   style="fill:#000000;fill-opacity:0;fill-rule:evenodd;stroke:none"
                   d="m 278423.1,134273.1 h 55176 v 24324 h -55176 z" /></g></g></g><g
             transform="scale(381)"
             id="g270"><g
               transform="translate(730.7693,352.42282)"
               id="g272"><g
                 id="g274"><text
                   id="text278"
                   style="font-variant:normal;font-weight:normal;font-size:17.33333397px;font-family:Lexend;-inkscape-font-specification:Lexend-Regular;writing-mode:lr-tb;fill:#76a5af;fill-opacity:1;fill-rule:nonzero;stroke:none"
                   transform="translate(21.213795,38.16126)"><tspan
                     id="tspan276"
                     y="0"
                     x="0 12.133334 23.070667 34.007999 38.358669 43.177334 52.450668 63.422668 71.812004 76.630669 87.290672 97.604004">Applicazioni</tspan></text>
</g></g></g><g
             transform="scale(381)"
             id="g280" /></g></g></g></g></svg>