<?xml version="1.0" standalone="no"?>
<!DOCTYPE svg PUBLIC "-//W3C//DTD SVG 20010904//EN"
 "http://www.w3.org/TR/2001/REC-SVG-20010904/DTD/svg10.dtd">
<svg version="1.0" xmlns="http://www.w3.org/2000/svg"
 width="666.000000pt" height="375.000000pt" viewBox="0 0 666.000000 375.000000"
 preserveAspectRatio="xMidYMid meet">

<g transform="translate(0.000000,375.000000) scale(0.100000,-0.100000)"
fill="#000000" stroke="none">
<path d="M3457 2985 c-4 -8 -2 -17 3 -20 6 -4 10 3 10 14 0 25 -6 27 -13 6z"/>
<path d="M3461 2844 c0 -11 3 -14 6 -6 3 7 2 16 -1 19 -3 4 -6 -2 -5 -13z"/>
<path d="M4835 2679 c-11 -17 1 -21 15 -4 8 9 8 15 2 15 -6 0 -14 -5 -17 -11z"/>
<path d="M5222 2660 c0 -14 2 -19 5 -12 2 6 2 18 0 25 -3 6 -5 1 -5 -13z"/>
<path d="M5090 2661 c0 -6 5 -13 10 -16 6 -3 10 1 10 9 0 9 -4 16 -10 16 -5 0
-10 -4 -10 -9z"/>
<path d="M4840 2626 c7 -7 13 -7 20 0 6 6 3 10 -10 10 -13 0 -16 -4 -10 -10z"/>
<path d="M4695 2531 c-81 -22 -115 -49 -169 -133 l-34 -54 1 -228 2 -228 74 0
73 0 -1 198 c-2 231 3 252 72 283 57 26 346 31 367 6 7 -8 18 -15 26 -15 7 0
20 -10 28 -22 13 -18 16 -53 16 -170 0 -106 3 -148 12 -148 6 0 8 -3 5 -6 -4
-4 7 -24 23 -44 17 -21 30 -43 30 -49 0 -18 30 -13 37 7 4 9 17 31 30 49 23
30 24 35 20 190 -2 87 -8 171 -12 188 -8 30 -80 128 -89 123 -3 -2 -12 6 -20
17 -9 11 -16 16 -16 11 0 -4 -12 0 -27 10 -25 17 -51 19 -223 21 -107 1 -208
-2 -225 -6z"/>
<path d="M2240 1880 c-19 -4 62 -7 180 -7 139 0 197 2 165 7 -63 10 -298 10
-345 0z"/>
<path d="M2930 1880 c-33 -4 24 -7 140 -7 130 0 177 2 140 7 -66 10 -204 9
-280 0z"/>
<path d="M3555 1880 c-83 -5 -68 -6 90 -7 114 -1 182 2 170 7 -22 9 -106 9
-260 0z"/>
<path d="M4089 1879 c-15 -9 317 -17 351 -8 25 6 25 6 -5 12 -39 9 -331 5
-346 -4z"/>
<path d="M4753 1873 c48 -2 126 -2 175 0 48 1 8 3 -88 3 -96 0 -136 -2 -87 -3z"/>
<path d="M6403 1873 c15 -2 39 -2 55 0 15 2 2 4 -28 4 -30 0 -43 -2 -27 -4z"/>
<path d="M2803 1863 c9 -2 23 -2 30 0 6 3 -1 5 -18 5 -16 0 -22 -2 -12 -5z"/>
</g>
</svg>
