<?xml version="1.0" standalone="no"?>
<!DOCTYPE svg PUBLIC "-//W3C//DTD SVG 20010904//EN"
 "http://www.w3.org/TR/2001/REC-SVG-20010904/DTD/svg10.dtd">
<svg version="1.0" xmlns="http://www.w3.org/2000/svg"
 width="1528.000000pt" height="1322.000000pt" viewBox="0 0 1528.000000 1322.000000"
 preserveAspectRatio="xMidYMid meet">

<g transform="translate(0.000000,1322.000000) scale(0.100000,-0.100000)"
fill="#000000" stroke="none">
<path d="M8716 12904 c-44 -64 -31 -120 33 -149 23 -10 43 -16 45 -14 8 8 50
178 46 182 -3 3 -26 8 -51 12 -46 7 -47 6 -73 -31z m96 1 c5 -5 -28 -124 -36
-132 -2 -2 -15 1 -29 8 -56 25 -33 129 28 129 18 0 34 -2 37 -5z"/>
<path d="M8555 12760 c-35 -55 -35 -141 0 -210 14 -28 29 -50 34 -50 16 0 33
55 38 125 3 38 12 80 19 92 8 12 14 27 14 32 0 9 -61 51 -74 51 -3 0 -17 -18
-31 -40z m75 -13 c0 -1 -7 -20 -15 -42 -8 -22 -14 -63 -15 -92 0 -64 -15 -76
-35 -29 -21 50 -19 115 5 154 17 28 23 31 40 22 11 -6 20 -12 20 -13z"/>
<path d="M8349 12651 c-46 -9 -85 -37 -142 -102 -47 -53 -51 -69 -16 -69 36 0
88 -60 103 -120 13 -49 13 -56 -1 -65 -102 -67 -151 -95 -165 -95 -31 0 -19
-14 35 -40 42 -20 53 -31 60 -58 10 -42 26 -48 84 -28 57 19 66 13 84 -56 12
-42 10 -56 -15 -145 l-28 -98 22 -49 c13 -29 25 -45 31 -39 5 5 20 47 33 94
12 46 27 93 33 104 6 11 29 85 52 165 23 80 47 156 52 170 5 14 13 54 18 90 5
36 13 80 17 98 8 37 -3 41 -42 16 -32 -22 -67 -7 -89 36 -13 26 -21 31 -40 26
-21 -5 -24 -2 -30 43 -4 27 -5 66 -3 87 3 42 -1 45 -53 35z m32 -83 c1 -90 10
-113 40 -113 17 0 36 -12 54 -33 25 -29 33 -33 67 -30 33 3 38 1 37 -17 0 -31
-34 -172 -62 -260 -14 -44 -44 -140 -66 -213 -50 -162 -55 -173 -69 -146 -8
15 -4 44 15 116 29 111 26 172 -11 215 -22 26 -24 26 -69 14 -57 -16 -72 -11
-80 26 -4 18 -15 34 -31 41 -14 6 -26 15 -26 19 1 11 89 69 117 77 30 9 36 34
23 92 -14 63 -50 118 -89 134 l-31 12 34 40 c46 53 95 88 123 88 21 0 23 -4
24 -62z"/>
<path d="M6958 11003 c-10 -2 -18 -8 -18 -13 0 -5 45 -47 99 -95 55 -47 103
-90 106 -95 12 -19 44 -10 64 19 12 16 21 34 21 39 0 10 -48 48 -149 120 -44
31 -77 37 -123 25z m100 -37 c20 -13 56 -39 79 -59 24 -19 48 -37 55 -40 10
-3 10 -9 -1 -30 l-14 -27 -37 33 c-21 17 -65 54 -98 81 -58 47 -69 66 -36 66
8 0 31 -11 52 -24z"/>
<path d="M7355 10965 c-22 -8 -41 -15 -42 -15 -9 0 -51 -75 -46 -82 8 -14 108
-1 145 18 41 20 78 54 78 69 0 12 -44 25 -79 25 -9 -1 -34 -7 -56 -15z m79
-11 c25 -10 19 -19 -27 -42 -50 -25 -107 -39 -107 -26 1 20 31 47 67 59 45 17
47 17 67 9z"/>
<path d="M6830 10765 c-8 -2 -31 -6 -51 -10 -30 -4 -40 -13 -62 -53 -20 -38
-24 -55 -18 -87 6 -39 8 -40 48 -43 36 -3 50 -11 96 -58 l54 -54 95 0 c90 0
97 2 136 30 23 17 42 34 42 39 0 9 -74 34 -126 44 -10 2 -27 7 -36 10 -10 4
-25 9 -34 12 -11 4 -14 11 -9 23 26 61 8 102 -58 133 -42 18 -48 20 -77 14z
m95 -55 c25 -24 34 -73 15 -85 -5 -3 -10 -15 -10 -25 0 -19 26 -29 153 -61 47
-11 48 -12 30 -30 -14 -14 -37 -19 -111 -20 l-93 -3 -57 57 c-51 50 -63 57
-93 55 -32 -3 -34 -1 -37 30 -4 37 29 98 56 106 9 2 41 4 70 2 38 -2 59 -9 77
-26z"/>
<path d="M6680 10464 c-14 -37 -12 -55 10 -92 26 -43 77 -64 130 -56 22 4 43
10 46 15 2 4 -16 35 -42 69 -66 87 -125 114 -144 64z m88 -35 c15 -18 35 -40
45 -50 23 -26 22 -36 -7 -43 -51 -13 -126 58 -111 105 9 29 44 23 73 -12z"/>
<path d="M6990 10383 c-8 -2 -21 -6 -28 -9 -10 -3 -8 -13 7 -41 23 -46 66 -87
80 -79 6 4 17 30 26 59 14 48 14 53 -2 64 -17 13 -55 16 -83 6z m64 -57 c-9
-47 -19 -51 -43 -18 -26 37 -26 49 -3 54 38 9 53 -3 46 -36z"/>
<path d="M6726 10159 c-38 -5 -214 -38 -390 -73 -196 -39 -363 -67 -429 -71
-103 -7 -109 -6 -123 14 -21 30 -64 27 -127 -9 -30 -16 -65 -30 -78 -30 -14 0
-52 16 -85 36 -32 20 -77 38 -99 41 -36 4 -44 1 -79 -36 -40 -41 -66 -96 -66
-142 0 -36 35 -166 50 -185 20 -23 1 -34 -76 -41 -38 -3 -83 -12 -101 -20 -64
-26 -119 -170 -93 -243 7 -19 41 -65 76 -102 35 -36 64 -68 64 -70 0 -3 -36
-3 -79 0 -94 5 -199 -22 -267 -69 -89 -61 -128 -194 -84 -288 12 -27 35 -55
52 -65 l29 -18 -60 -28 c-74 -35 -105 -77 -96 -130 6 -34 55 -90 80 -90 21 0
53 -45 75 -108 49 -135 2 -257 -134 -348 -36 -24 -66 -48 -66 -52 0 -4 18 -16
40 -26 22 -11 40 -23 40 -27 0 -13 -47 -33 -141 -62 -91 -28 -154 -64 -154
-87 0 -10 16 -18 46 -23 36 -7 62 -22 119 -72 147 -130 240 -121 473 42 43 31
81 53 84 49 3 -3 -21 -47 -54 -98 -156 -241 -253 -517 -253 -721 l0 -89 39
-15 39 -15 -55 -72 c-114 -147 -162 -288 -128 -373 31 -77 95 -75 166 3 50 57
76 116 111 256 29 117 30 128 20 215 -6 50 -7 102 -4 115 23 75 96 157 189
210 l38 21 -32 -34 c-18 -19 -42 -56 -53 -82 -18 -40 -20 -59 -15 -113 4 -35
10 -66 14 -69 7 -4 180 125 268 200 49 41 53 42 53 13 1 -30 37 -74 86 -103
l39 -23 -40 -8 c-79 -14 -121 -76 -127 -185 l-3 -62 62 -56 c88 -81 96 -96 87
-173 -5 -43 -19 -88 -46 -142 -42 -84 -224 -376 -242 -388 -6 -4 -24 -8 -41
-8 -53 -1 -57 -10 -36 -72 29 -86 183 -280 208 -265 5 4 18 33 28 66 17 57 20
60 55 66 25 4 61 0 107 -14 37 -11 97 -23 133 -26 60 -6 70 -4 138 29 41 20
83 36 93 36 11 0 37 -12 56 -27 62 -48 160 -34 332 45 177 81 303 112 449 112
125 -1 125 1 -26 -79 l-97 -52 -75 -114 -75 -114 8 -128 8 -128 116 -117 c109
-109 121 -118 170 -128 29 -6 77 -11 106 -10 109 3 114 2 136 -33 l20 -33 -20
-55 c-11 -29 -37 -76 -56 -102 -20 -27 -46 -77 -59 -111 l-22 -62 44 -30 c24
-16 44 -36 44 -44 0 -8 -16 -44 -35 -80 -31 -56 -35 -73 -35 -135 0 -59 4 -76
25 -107 31 -45 31 -52 3 -37 -33 17 -98 12 -115 -8 -14 -18 -13 -83 1 -115 6
-14 -7 -12 -83 13 -78 25 -107 29 -204 29 -61 0 -152 -7 -201 -15 -100 -16
-271 -80 -356 -133 -154 -97 -356 -286 -401 -374 -42 -84 -40 -91 23 -83 51 7
70 13 233 73 44 16 104 33 134 37 l54 7 -6 -43 c-12 -90 29 -279 73 -341 11
-15 20 -32 20 -38 0 -15 -135 -184 -215 -268 -90 -95 -186 -152 -395 -237 -91
-37 -199 -85 -240 -107 -73 -40 -190 -141 -190 -164 0 -7 10 -21 23 -31 25
-20 47 -64 47 -94 0 -62 89 -154 164 -168 59 -11 161 16 289 75 90 43 104 46
154 41 36 -4 82 -20 134 -46 44 -23 88 -41 99 -41 29 0 25 -11 -20 -55 -66
-65 -60 -69 93 -61 110 5 141 3 182 -10 57 -20 123 -61 180 -114 62 -57 122
-86 193 -93 78 -8 129 10 234 85 41 30 147 94 234 143 87 48 183 101 212 118
29 16 55 27 57 25 10 -10 -281 -356 -366 -435 -81 -75 -111 -96 -182 -126 -96
-42 -117 -43 -267 -21 -185 27 -293 32 -385 18 -97 -14 -147 -40 -172 -87 -8
-18 -36 -58 -62 -90 -38 -48 -61 -65 -127 -97 -98 -47 -131 -82 -139 -148 -19
-157 -32 -177 -216 -349 -69 -65 -176 -179 -237 -253 -117 -142 -156 -176
-241 -209 -128 -51 -217 -116 -206 -151 2 -8 9 -34 15 -57 l11 -42 57 26 c68
31 106 31 207 -1 63 -20 81 -22 128 -14 54 9 58 12 136 103 45 52 101 108 126
125 92 64 382 168 491 177 52 5 71 1 118 -20 31 -14 78 -44 104 -66 26 -22 73
-52 106 -66 l58 -26 60 23 c84 32 124 90 178 256 51 160 88 211 180 254 94 43
200 60 308 48 117 -12 154 -24 242 -75 99 -58 117 -61 187 -37 55 19 64 19
167 7 97 -12 112 -12 142 3 37 17 41 33 19 72 -8 14 -14 30 -15 35 0 6 50 10
128 11 109 1 139 5 212 28 47 15 115 45 153 67 l67 40 -15 29 c-8 16 -15 31
-15 34 0 2 39 -13 88 -33 116 -51 170 -56 567 -56 304 0 340 -2 455 -23 209
-40 284 -25 482 94 147 89 163 95 241 87 63 -6 65 -5 82 23 9 16 40 48 69 72
28 23 78 65 111 92 33 28 90 75 126 106 44 37 73 70 89 103 22 47 22 50 6 104
-16 53 -18 56 -66 72 -43 14 -63 15 -162 5 -241 -25 -248 -24 -308 3 -30 13
-86 43 -125 66 -38 22 -78 41 -89 41 -41 0 -5 12 77 25 130 21 189 52 223 117
31 59 6 126 -55 151 l-36 14 70 34 c65 32 76 34 159 32 74 -2 93 0 116 17 40
29 54 68 40 119 -11 43 -7 61 14 61 24 0 222 138 250 174 41 55 69 126 111
288 l38 147 -24 128 -23 128 -67 75 c-91 103 -90 102 -214 154 -95 39 -138 51
-317 81 -114 19 -220 35 -235 35 -59 0 -104 -21 -150 -70 -47 -49 -108 -83
-175 -95 -30 -6 -50 -1 -114 30 l-77 37 106 107 c125 126 142 154 134 227 -9
84 -84 212 -185 310 -79 78 -203 176 -270 214 -32 17 -48 29 -37 26 11 -3 47
-12 80 -19 33 -8 93 -28 134 -46 40 -17 75 -31 77 -31 16 0 -9 45 -91 165 -70
103 -101 159 -120 217 l-26 78 41 53 c22 30 40 58 40 64 0 5 -17 19 -39 31
-21 12 -98 77 -171 145 -233 215 -264 236 -432 303 -187 76 -220 97 -309 200
-72 84 -82 101 -119 204 -22 62 -56 176 -76 254 -63 250 -97 335 -180 445
-142 188 -414 373 -649 442 -148 43 -217 43 -350 -1 -78 -25 -123 -34 -202
-38 -108 -4 -256 15 -329 43 l-39 15 65 -5 c115 -8 182 7 277 66 54 33 118 62
180 80 85 26 102 35 164 90 38 34 69 64 69 68 0 5 -30 20 -68 34 -62 25 -79
27 -222 28 l-155 1 95 32 c262 89 379 156 521 296 133 131 172 187 274 390 53
105 132 243 180 314 59 87 89 141 97 176 l11 50 -57 85 c-32 46 -66 90 -75 98
-30 25 -238 62 -341 61 -52 -1 -286 -4 -520 -6 l-425 -5 -205 -66 c-196 -62
-300 -85 -300 -65 0 31 40 88 125 177 54 56 96 103 94 105 -2 1 -33 13 -69 26
-36 13 -66 24 -68 26 -2 1 16 41 40 88 l43 86 115 79 c63 43 171 111 240 150
95 55 145 93 209 154 91 89 104 112 126 218 30 142 17 188 -60 206 -59 13 -60
13 -149 2z m147 -26 c52 -8 62 -35 48 -128 -23 -144 -35 -168 -132 -259 -64
-59 -123 -101 -207 -149 -65 -37 -172 -104 -237 -150 l-119 -82 -47 -95 c-26
-52 -48 -100 -48 -105 -1 -6 28 -19 64 -29 36 -10 65 -21 65 -24 0 -3 -38 -45
-85 -94 -80 -82 -125 -153 -125 -195 0 -30 130 -8 325 57 99 32 207 63 240 68
33 6 161 8 285 5 124 -3 328 -1 454 5 240 11 250 10 482 -43 12 -2 46 -42 82
-94 l62 -89 -14 -45 c-7 -25 -51 -100 -97 -168 -46 -68 -121 -200 -167 -293
-99 -201 -119 -232 -230 -354 -154 -168 -305 -255 -601 -347 -74 -23 -136 -46
-138 -52 -3 -7 64 -12 204 -16 169 -4 216 -8 251 -22 l43 -18 -38 -39 c-53
-55 -91 -76 -175 -99 -40 -11 -102 -37 -137 -57 -144 -83 -139 -81 -240 -82
-96 0 -175 15 -255 50 -67 28 -66 6 1 -37 75 -48 169 -79 317 -104 145 -24
213 -20 380 27 152 43 206 43 345 3 228 -67 498 -251 633 -430 81 -108 126
-219 179 -441 48 -199 109 -359 165 -427 114 -139 143 -160 327 -236 141 -57
158 -65 210 -101 28 -19 116 -95 197 -170 81 -74 168 -148 194 -165 25 -17 46
-33 46 -35 0 -2 -16 -29 -36 -58 l-36 -54 26 -84 c20 -65 43 -109 104 -198 43
-63 81 -121 86 -128 5 -8 -11 -5 -44 8 -75 30 -185 59 -265 71 -102 15 -295
21 -295 10 0 -17 17 -22 139 -36 189 -22 220 -33 339 -122 197 -147 327 -312
348 -443 9 -56 -21 -103 -140 -218 -58 -56 -106 -106 -106 -110 0 -10 87 -60
135 -79 80 -31 181 1 271 87 l62 60 67 0 c37 0 152 -14 257 -31 167 -27 203
-37 298 -78 103 -44 113 -51 186 -129 l76 -82 24 -126 25 -125 -41 -150 c-48
-176 -75 -241 -121 -290 -35 -37 -156 -115 -249 -159 -15 -8 -15 -15 -4 -77 9
-44 -2 -80 -29 -95 -13 -8 -58 -13 -112 -13 -85 0 -95 -2 -177 -42 -49 -23
-88 -46 -88 -51 0 -5 20 -15 45 -22 56 -16 90 -57 80 -98 -17 -73 -101 -122
-235 -137 -65 -7 -165 -48 -156 -64 3 -5 25 -6 49 -4 32 4 55 -1 92 -19 61
-30 98 -51 105 -60 3 -3 30 -16 60 -28 48 -19 67 -21 150 -16 348 23 346 23
372 -48 17 -45 17 -48 -2 -86 -21 -42 -80 -101 -152 -153 -80 -58 -236 -199
-241 -219 -5 -18 -12 -19 -74 -13 -79 8 -95 2 -264 -101 -174 -105 -238 -116
-461 -79 -163 28 -284 32 -568 20 -202 -9 -320 9 -462 69 -101 43 -128 52
-128 41 0 -2 13 -24 29 -47 16 -24 27 -46 24 -51 -2 -4 -28 -19 -56 -34 -124
-64 -296 -99 -422 -84 -38 5 -74 5 -78 1 -5 -4 3 -31 17 -59 l26 -51 -24 -11
c-18 -9 -54 -8 -136 0 -99 10 -118 10 -162 -5 -66 -21 -102 -14 -188 37 -161
96 -380 104 -563 21 -50 -23 -73 -42 -108 -86 -24 -31 -47 -66 -51 -79 -73
-248 -102 -304 -179 -336 -26 -12 -57 -21 -69 -21 -30 0 -91 33 -152 83 -29
23 -81 55 -116 70 -60 27 -66 28 -135 17 -136 -20 -410 -125 -501 -190 -24
-18 -75 -70 -112 -116 -38 -47 -80 -87 -92 -91 -47 -12 -109 -7 -196 17 -87
23 -90 24 -135 6 -82 -31 -79 -31 -87 9 -6 33 -3 41 24 68 17 17 74 48 130 72
124 52 159 81 268 214 48 58 162 180 254 271 101 99 174 180 184 203 10 21 23
76 30 122 14 98 31 123 104 151 93 35 167 102 222 201 36 66 82 83 232 90 96
4 152 0 257 -16 202 -32 233 -30 348 24 82 39 109 58 185 133 87 85 408 480
408 501 0 16 -4 15 -83 -31 -40 -22 -117 -66 -172 -96 -175 -96 -285 -161
-338 -201 -89 -65 -129 -81 -203 -81 -74 0 -101 12 -189 85 -145 120 -201 140
-362 130 -75 -4 -113 -3 -113 4 0 5 20 27 45 48 25 20 45 40 45 44 0 4 -16 10
-35 13 -19 4 -74 26 -122 49 -66 31 -102 42 -149 45 -57 4 -71 0 -161 -41
-218 -100 -295 -101 -376 -7 -20 24 -40 59 -43 79 -10 52 -32 101 -49 108 -26
9 -16 30 38 78 72 64 147 104 338 181 202 81 314 144 399 226 63 61 234 271
246 302 3 8 -7 31 -23 52 -45 60 -77 204 -71 325 l3 72 -71 -6 c-49 -5 -106
-20 -189 -52 -65 -25 -138 -48 -162 -52 l-43 -6 24 53 c29 62 105 143 231 244
131 106 188 141 310 190 220 87 436 100 619 35 52 -19 98 -30 103 -26 4 5 -3
27 -15 50 -37 70 -26 107 32 107 39 0 82 -28 106 -68 11 -17 29 -36 41 -42 27
-15 129 -4 129 13 0 7 -36 28 -79 47 -70 31 -82 41 -115 91 -52 80 -50 133 6
252 l42 89 -25 22 c-13 11 -35 28 -47 36 l-22 15 18 50 c10 28 35 73 55 100
39 56 77 136 77 165 0 10 -9 34 -20 53 -18 30 -26 35 -74 41 -30 3 -67 3 -84
0 -16 -3 -55 -1 -87 6 -55 11 -64 18 -171 123 l-113 112 -6 120 -6 120 73 110
c40 60 82 114 93 120 149 77 245 131 245 137 0 25 -221 31 -325 9 -75 -16
-200 -59 -291 -101 -91 -42 -168 -67 -226 -73 -41 -4 -53 0 -89 26 -53 39 -94
38 -168 -5 -49 -28 -64 -31 -122 -30 -36 1 -91 11 -124 22 -57 20 -120 25
-161 14 -16 -4 -25 -19 -34 -52 -7 -26 -17 -51 -21 -56 -17 -19 -133 126 -170
211 -22 52 -16 63 33 63 23 0 35 12 71 68 198 305 244 392 256 485 11 86 7 94
-85 183 -62 60 -64 63 -64 113 0 58 27 121 62 145 16 11 46 16 100 16 44 0 78
4 78 10 0 5 -36 26 -80 46 -104 48 -128 80 -105 144 18 51 18 50 5 50 -6 0
-32 -20 -58 -44 -26 -24 -101 -85 -167 -135 l-120 -92 -8 46 c-12 70 27 141
120 219 39 34 72 67 72 74 1 17 0 16 -76 -24 -153 -83 -229 -149 -272 -237
-22 -45 -22 -52 -12 -145 9 -89 8 -106 -14 -202 -36 -162 -78 -249 -142 -300
-91 -72 -141 75 -72 213 34 66 89 148 140 209 17 20 28 41 25 47 -4 6 -25 15
-46 21 l-40 11 0 72 c0 139 61 351 160 557 12 25 60 104 106 176 119 185 115
191 -48 79 -196 -135 -260 -159 -357 -134 -39 10 -67 28 -120 76 -41 37 -82
66 -100 69 -17 4 -31 10 -31 15 0 16 44 37 110 53 66 17 190 71 190 84 0 4
-20 18 -45 32 -25 14 -45 27 -45 30 0 3 24 19 53 37 75 45 127 123 142 215 12
68 11 74 -14 144 -28 75 -51 105 -113 143 -87 52 -38 141 100 182 23 7 42 16
42 20 0 4 -21 19 -46 34 -86 50 -104 153 -45 261 21 38 37 54 81 76 109 55
184 65 323 42 22 -4 37 -2 37 4 0 6 -33 46 -74 89 -98 105 -109 127 -95 195 9
40 51 134 62 139 1 0 52 8 112 17 127 20 124 17 81 117 -45 106 -32 213 33
268 36 30 75 29 123 -5 45 -32 115 -58 135 -52 10 4 46 20 79 37 l61 31 30
-25 c29 -24 31 -25 149 -17 74 5 209 27 359 58 453 93 502 99 598 83z m236
-5927 c42 -22 43 -24 22 -31 -19 -6 -30 0 -55 24 -36 37 -27 39 33 7z"/>
<path d="M4254 9950 c-18 -4 -67 -32 -110 -62 -44 -30 -117 -75 -164 -100 -69
-36 -89 -52 -104 -82 -18 -36 -18 -40 -2 -73 9 -20 14 -38 11 -41 -3 -4 -36 2
-73 11 -119 31 -173 17 -201 -51 -18 -42 1 -107 37 -129 15 -9 29 -18 31 -20
2 -2 -4 -12 -14 -23 -28 -31 -6 -72 56 -101 28 -12 52 -26 55 -30 2 -4 -33
-35 -78 -70 -46 -34 -83 -65 -83 -70 0 -4 20 -23 44 -42 l44 -35 49 21 c26 12
87 58 135 102 48 44 109 97 136 117 79 60 126 106 147 147 22 44 19 51 -24 52
-28 0 -29 1 -11 12 10 7 46 37 78 67 77 72 133 180 143 274 6 59 4 69 -17 101
-25 36 -32 38 -85 25z m80 -120 c-8 -76 -64 -192 -121 -252 -27 -27 -74 -63
-105 -80 -62 -33 -72 -47 -35 -49 45 -3 68 -6 73 -12 15 -15 -57 -88 -171
-172 -22 -16 -74 -62 -116 -102 -42 -40 -93 -80 -113 -88 -35 -15 -39 -15 -67
6 -16 11 -29 25 -27 29 2 4 40 35 86 70 45 34 82 65 82 68 0 4 -30 23 -68 42
-70 37 -88 64 -57 90 23 19 18 36 -14 49 -26 11 -42 32 -54 72 -8 25 18 73 47
88 23 13 35 13 84 1 65 -15 172 -25 172 -15 0 3 -9 23 -20 45 -11 22 -20 46
-20 54 0 26 42 63 115 101 39 21 103 60 142 87 40 28 90 56 110 64 37 13 39
12 61 -14 19 -23 22 -34 16 -82z"/>
<path d="M3297 8900 c-35 -41 -34 -52 8 -84 47 -36 147 -61 208 -52 41 6 52
13 82 53 19 25 35 50 35 54 0 5 -17 17 -37 28 -27 13 -71 21 -154 26 l-116 7
-26 -32z m239 -6 c17 -2 39 -10 48 -17 17 -13 17 -16 -13 -49 -22 -25 -42 -37
-71 -42 -52 -8 -152 20 -181 50 -20 22 -21 25 -6 48 15 23 20 24 104 19 48 -2
102 -6 119 -9z"/>
<path d="M4134 8868 c-65 -28 -123 -54 -129 -59 -5 -5 -8 -25 -7 -44 2 -30 -1
-37 -24 -45 -40 -16 -84 -50 -84 -65 0 -24 53 -103 75 -113 12 -6 48 -13 81
-18 64 -8 101 -36 136 -101 41 -78 174 -120 286 -91 9 2 22 -19 36 -57 34 -90
37 -95 49 -95 6 0 42 18 79 41 64 37 72 46 105 114 21 41 35 77 32 79 -3 3
-68 14 -144 25 -180 25 -187 31 -205 180 -8 67 -23 130 -44 184 -31 79 -34 83
-77 99 l-45 16 -120 -50z m163 11 c27 -9 35 -21 58 -87 15 -42 34 -124 43
-182 12 -88 19 -111 42 -138 26 -32 32 -34 159 -52 73 -10 135 -20 137 -23 3
-3 -8 -32 -25 -65 -26 -52 -39 -65 -87 -91 -32 -17 -61 -31 -65 -31 -4 0 -19
34 -35 76 l-27 76 -41 -8 c-71 -14 -119 -9 -178 18 -48 22 -62 35 -89 83 -36
64 -62 80 -149 94 -68 11 -92 26 -111 72 -14 35 -5 49 52 77 29 15 34 23 37
57 l3 40 112 47 c125 53 123 52 164 37z"/>
<path d="M3384 8589 c-27 -35 -47 -138 -42 -215 5 -72 8 -80 38 -107 18 -16
38 -26 47 -23 8 3 26 6 40 6 l26 0 -6 72 c-9 110 -37 214 -67 249 -21 25 -28
29 -36 18z m41 -72 c15 -36 45 -185 45 -223 0 -20 -5 -24 -32 -24 -45 1 -69
36 -75 109 -6 61 19 171 38 171 5 0 16 -15 24 -33z"/>
<path d="M4178 8174 c-35 -19 -35 -29 1 -65 33 -33 47 -35 96 -15 40 17 43 33
14 70 -24 30 -67 34 -111 10z m87 -18 c28 -20 12 -46 -29 -46 -25 0 -38 6 -46
20 -9 17 -7 22 12 30 32 12 42 12 63 -4z"/>
<path d="M3250 8138 c0 -7 8 -23 18 -36 14 -18 24 -22 44 -17 27 7 45 33 31
46 -4 4 -27 10 -50 14 -33 5 -43 4 -43 -7z m67 -24 c-3 -3 -12 -4 -19 -1 -8 3
-5 6 6 6 11 1 17 -2 13 -5z"/>
<path d="M4031 7778 c-43 -23 -82 -71 -68 -84 22 -22 177 71 161 97 -9 16 -48
10 -93 -13z m49 -12 c0 -5 -65 -46 -74 -46 -16 0 -3 21 22 34 26 15 52 20 52
12z"/>
<path d="M4311 7767 l-53 -10 6 -36 c4 -28 18 -48 62 -86 l56 -51 -12 -40 c-9
-31 -24 -48 -66 -77 -30 -21 -54 -42 -54 -46 0 -12 66 -29 141 -36 89 -9 198
15 261 58 40 27 49 39 58 80 17 79 14 93 -22 108 -18 7 -73 38 -123 69 -77 48
-162 83 -192 79 -4 -1 -32 -6 -62 -12z m230 -80 c47 -30 102 -62 122 -71 37
-15 37 -16 31 -58 -4 -24 -10 -50 -15 -59 -15 -29 -84 -69 -138 -79 -62 -12
-207 -12 -235 -1 -17 7 -14 11 26 39 36 25 49 41 62 83 l17 52 -38 31 c-66 54
-81 70 -88 93 -7 27 13 33 105 29 61 -3 72 -7 151 -59z"/>
<path d="M4680 7216 c-76 -29 -88 -35 -114 -66 -25 -30 -26 -34 -12 -55 15
-23 14 -25 -29 -51 -34 -22 -46 -37 -54 -68 -12 -48 -5 -55 44 -47 60 10 235
227 235 290 0 14 -27 13 -70 -3z m30 -25 c0 -46 -163 -241 -202 -241 -14 0
-18 5 -14 16 3 9 6 19 6 24 0 4 23 22 50 40 28 18 50 35 50 39 0 4 -7 17 -16
29 -20 30 -7 47 61 78 55 26 65 28 65 15z"/>
<path d="M4294 6986 c-55 -22 -114 -46 -131 -52 -27 -10 -32 -19 -48 -83 -9
-40 -15 -75 -11 -78 3 -3 38 10 78 30 39 20 75 34 80 31 11 -7 10 -81 -1 -121
-6 -19 -6 -35 -1 -38 5 -3 41 2 81 12 61 14 74 21 95 52 27 39 29 69 13 157
-17 96 -29 134 -42 133 -7 -1 -57 -20 -113 -43z m130 -90 c19 -95 19 -99 1
-132 -18 -33 -26 -37 -116 -59 -25 -6 -25 -6 -19 47 3 29 3 67 0 83 -5 25 -9
29 -30 26 -14 -1 -47 -14 -73 -28 -27 -13 -50 -23 -52 -21 -2 2 1 24 6 50 l10
46 92 32 c51 18 103 38 117 46 14 7 30 12 35 10 6 -1 19 -46 29 -100z"/>
<path d="M5085 6791 c-23 -4 -36 -17 -54 -52 l-24 -46 25 -64 c23 -60 29 -66
84 -95 l59 -32 44 19 44 19 -5 70 c-6 83 -39 140 -99 171 -21 10 -40 18 -41
18 -2 -1 -16 -4 -33 -8z m74 -37 c41 -24 67 -73 74 -137 6 -58 6 -58 -28 -74
-31 -15 -35 -15 -76 8 -35 19 -50 36 -72 82 -26 56 -27 59 -11 90 9 18 22 35
28 39 18 13 56 9 85 -8z"/>
<path d="M4070 6290 c-41 -4 -115 -17 -163 -29 -53 -14 -99 -20 -117 -16 -27
6 -36 0 -88 -53 -68 -71 -113 -97 -141 -82 -32 17 -46 12 -108 -34 -47 -36
-68 -61 -102 -123 -23 -43 -57 -99 -75 -124 -31 -41 -40 -47 -113 -67 -44 -12
-93 -22 -109 -22 -68 0 -102 -12 -107 -36 -5 -26 32 -67 71 -79 23 -7 23 -8 6
-26 -28 -31 -75 -56 -119 -64 -53 -9 -125 -51 -124 -73 2 -41 37 -116 76 -161
117 -136 317 -223 505 -219 l69 1 54 60 c30 33 71 92 90 130 20 39 44 76 53
83 9 8 40 14 69 14 64 0 88 -18 146 -114 42 -68 47 -73 151 -122 38 -18 38
-19 32 -64 -6 -43 -4 -48 19 -58 41 -19 124 -14 183 10 l52 22 75 -22 c41 -12
94 -22 119 -22 47 0 62 13 139 119 35 48 73 74 137 91 68 18 102 45 122 95 21
54 19 60 -21 68 -33 7 -38 15 -47 97 l-7 62 23 -12 c13 -7 45 -32 70 -56 26
-24 50 -44 54 -44 3 0 6 35 6 78 l0 78 -47 46 c-58 56 -128 76 -203 59 -24 -5
-46 -8 -49 -5 -8 7 33 75 52 85 11 6 17 22 17 43 0 26 -17 57 -72 132 -39 55
-87 124 -107 155 -82 129 -151 176 -292 199 -69 11 -68 11 -179 0z m280 -50
c64 -27 120 -77 157 -140 15 -25 64 -97 110 -159 46 -63 83 -122 83 -131 0 -9
-11 -26 -23 -39 -28 -26 -73 -118 -63 -128 4 -4 36 0 70 9 56 15 70 15 117 3
68 -18 114 -64 124 -124 4 -23 4 -45 1 -48 -3 -3 -20 5 -38 19 -32 24 -92 58
-103 58 -3 0 -5 -30 -5 -67 0 -80 23 -136 58 -141 49 -7 4 -82 -65 -107 -131
-48 -163 -70 -199 -140 -46 -87 -90 -102 -194 -65 -71 25 -117 25 -171 0 -48
-21 -119 -26 -149 -10 -16 9 -18 15 -9 33 18 39 -4 75 -58 98 -84 35 -97 46
-133 111 -19 35 -44 73 -56 86 -42 46 -163 51 -203 8 -11 -11 -31 -46 -45 -76
-14 -30 -47 -82 -74 -115 l-48 -60 -120 1 c-110 1 -125 3 -192 32 -156 66
-272 166 -305 264 l-16 48 27 19 c15 11 54 26 85 34 54 14 167 86 167 106 0 4
-23 18 -51 30 -46 21 -69 44 -57 56 3 3 34 8 69 11 35 3 100 17 145 30 80 24
81 25 121 87 22 34 57 92 78 130 28 52 49 75 90 103 46 30 57 34 75 24 12 -7
33 -9 46 -6 37 10 117 71 137 105 19 32 23 34 72 31 17 0 67 8 110 19 112 28
125 30 260 27 99 -3 130 -7 175 -26z"/>
<path d="M5747 4285 c-27 -7 -51 -16 -54 -19 -3 -3 0 -49 7 -101 l13 -97 63
-31 64 -31 77 19 c75 19 110 41 217 136 15 13 3 19 -59 29 -35 6 -77 22 -108
42 -66 43 -124 68 -151 67 -11 0 -43 -7 -69 -14z m136 -31 c29 -14 67 -37 85
-51 18 -14 51 -27 73 -30 22 -3 42 -9 44 -13 2 -4 -18 -26 -46 -49 -37 -32
-68 -48 -124 -63 l-74 -20 -53 29 -53 28 -12 80 c-7 43 -10 81 -8 83 3 4 93
29 108 31 4 1 31 -11 60 -25z"/>
<path d="M8327 1130 c-52 -18 -157 -91 -157 -111 0 -4 26 -13 58 -19 31 -6 81
-20 110 -30 30 -11 75 -20 100 -20 41 0 54 6 102 45 30 25 56 49 58 54 5 14
-101 80 -138 86 -19 4 -44 8 -55 10 -11 2 -46 -5 -78 -15z m193 -46 c22 -15
40 -30 40 -35 0 -4 -20 -24 -44 -43 -50 -42 -86 -46 -161 -17 -28 10 -72 22
-98 26 l-48 7 27 29 c68 71 203 86 284 33z"/>
</g>
</svg>
